STARTFONT 2.1
FONT -FontForge-Liberation Sans-Book-R-Normal-Sans-15-140-75-75-P-87-ISO10646-1
SIZE 14 75 75
FONTBOUNDINGBOX 15 19 -2 -5
COMMENT "Generated by fontforge, http://fontforge.sourceforge.net"
COMMENT "Digitized data © 2007 Ascender Corporation. All rights reserved."
STARTPROPERTIES 39
FOUNDRY "FontForge"
FAMILY_NAME "Liberation Sans"
WEIGHT_NAME "Book"
SLANT "R"
SETWIDTH_NAME "Normal"
ADD_STYLE_NAME "Sans"
PIXEL_SIZE 15
POINT_SIZE 140
RESOLUTION_X 75
RESOLUTION_Y 75
SPACING "P"
AVERAGE_WIDTH 87
CHARSET_REGISTRY "ISO10646"
CHARSET_ENCODING "1"
FONTNAME_REGISTRY ""
CHARSET_COLLECTIONS "ASCII ISOLatin1Encoding ISO8859-2 ISO8859-5 ISO8859-7 ISO8859-9 ISO8859-4 Symbol ISO10646-1"
FONT_NAME "LiberationSans"
FACE_NAME "Liberation Sans"
FONT_VERSION "1.00"
FONT_ASCENT 12
FONT_DESCENT 3
UNDERLINE_POSITION -2
UNDERLINE_THICKNESS 2
X_HEIGHT 7
CAP_HEIGHT 9
RAW_ASCENT 799
RAW_DESCENT 200
NORM_SPACE 4
RELATIVE_WEIGHT 40
RELATIVE_SETWIDTH 50
SUPERSCRIPT_X 0
SUPERSCRIPT_Y 7
SUPERSCRIPT_SIZE 9
SUBSCRIPT_X 0
SUBSCRIPT_Y 2
SUBSCRIPT_SIZE 9
FIGURE_WIDTH 8
AVG_LOWERCASE_WIDTH 76
AVG_UPPERCASE_WIDTH 102
ENDPROPERTIES
CHARS 668
STARTCHAR space
ENCODING 32
SWIDTH 277 0
DWIDTH 4 0
BBX 1 1 0 0
BITMAP
00
ENDCHAR
STARTCHAR exclam
ENCODING 33
SWIDTH 277 0
DWIDTH 4 0
BBX 1 10 2 0
BITMAP
80
80
80
80
80
80
80
00
80
80
ENDCHAR
STARTCHAR quotedbl
ENCODING 34
SWIDTH 354 0
DWIDTH 5 0
BBX 3 3 1 7
BITMAP
A0
A0
A0
ENDCHAR
STARTCHAR numbersign
ENCODING 35
SWIDTH 556 0
DWIDTH 8 0
BBX 8 10 0 0
BITMAP
12
12
24
7F
24
24
FF
48
48
48
ENDCHAR
STARTCHAR dollar
ENCODING 36
SWIDTH 556 0
DWIDTH 8 0
BBX 6 12 1 -1
BITMAP
10
78
94
90
90
70
18
14
14
94
78
10
ENDCHAR
STARTCHAR percent
ENCODING 37
SWIDTH 889 0
DWIDTH 13 0
BBX 11 10 1 0
BITMAP
6080
9100
9100
9200
94C0
6520
0920
1120
1120
20C0
ENDCHAR
STARTCHAR ampersand
ENCODING 38
SWIDTH 666 0
DWIDTH 10 0
BBX 9 10 1 0
BITMAP
1C00
2200
2200
2400
3800
5100
8900
8600
8600
7980
ENDCHAR
STARTCHAR quotesingle
ENCODING 39
SWIDTH 190 0
DWIDTH 3 0
BBX 1 3 1 7
BITMAP
80
80
80
ENDCHAR
STARTCHAR parenleft
ENCODING 40
SWIDTH 333 0
DWIDTH 5 0
BBX 4 14 1 -3
BITMAP
10
20
40
40
80
80
80
80
80
80
40
40
20
10
ENDCHAR
STARTCHAR parenright
ENCODING 41
SWIDTH 333 0
DWIDTH 5 0
BBX 4 14 0 -3
BITMAP
80
40
20
20
10
10
10
10
10
10
20
20
40
80
ENDCHAR
STARTCHAR asterisk
ENCODING 42
SWIDTH 389 0
DWIDTH 6 0
BBX 5 5 0 5
BITMAP
20
A8
70
50
88
ENDCHAR
STARTCHAR plus
ENCODING 43
SWIDTH 583 0
DWIDTH 9 0
BBX 7 7 1 2
BITMAP
10
10
10
FE
10
10
10
ENDCHAR
STARTCHAR comma
ENCODING 44
SWIDTH 277 0
DWIDTH 4 0
BBX 2 4 1 -2
BITMAP
40
40
40
80
ENDCHAR
STARTCHAR hyphen
ENCODING 45
SWIDTH 333 0
DWIDTH 5 0
BBX 3 1 1 4
BITMAP
E0
ENDCHAR
STARTCHAR period
ENCODING 46
SWIDTH 277 0
DWIDTH 4 0
BBX 1 2 2 0
BITMAP
80
80
ENDCHAR
STARTCHAR slash
ENCODING 47
SWIDTH 277 0
DWIDTH 4 0
BBX 4 11 0 0
BITMAP
10
10
20
20
20
40
40
40
40
80
80
ENDCHAR
STARTCHAR zero
ENCODING 48
SWIDTH 556 0
DWIDTH 8 0
BBX 6 10 1 0
BITMAP
30
48
84
84
84
84
84
84
48
30
ENDCHAR
STARTCHAR one
ENCODING 49
SWIDTH 556 0
DWIDTH 8 0
BBX 5 10 2 0
BITMAP
20
60
A0
20
20
20
20
20
20
F8
ENDCHAR
STARTCHAR two
ENCODING 50
SWIDTH 556 0
DWIDTH 8 0
BBX 6 10 1 0
BITMAP
78
84
04
04
08
10
20
40
80
FC
ENDCHAR
STARTCHAR three
ENCODING 51
SWIDTH 556 0
DWIDTH 8 0
BBX 6 10 1 0
BITMAP
78
84
04
04
18
04
04
04
84
78
ENDCHAR
STARTCHAR four
ENCODING 52
SWIDTH 556 0
DWIDTH 8 0
BBX 7 10 1 0
BITMAP
08
18
28
28
48
48
88
FE
08
08
ENDCHAR
STARTCHAR five
ENCODING 53
SWIDTH 556 0
DWIDTH 8 0
BBX 6 10 1 0
BITMAP
FC
80
80
80
B0
C8
04
04
88
70
ENDCHAR
STARTCHAR six
ENCODING 54
SWIDTH 556 0
DWIDTH 8 0
BBX 6 10 1 0
BITMAP
38
44
80
80
B0
C8
84
84
48
30
ENDCHAR
STARTCHAR seven
ENCODING 55
SWIDTH 556 0
DWIDTH 8 0
BBX 6 10 1 0
BITMAP
FC
04
08
08
10
10
20
20
20
20
ENDCHAR
STARTCHAR eight
ENCODING 56
SWIDTH 556 0
DWIDTH 8 0
BBX 6 10 1 0
BITMAP
78
84
84
84
78
CC
84
84
84
78
ENDCHAR
STARTCHAR nine
ENCODING 57
SWIDTH 556 0
DWIDTH 8 0
BBX 6 10 1 0
BITMAP
30
48
84
84
4C
34
04
04
88
70
ENDCHAR
STARTCHAR colon
ENCODING 58
SWIDTH 277 0
DWIDTH 4 0
BBX 1 8 2 0
BITMAP
80
80
00
00
00
00
80
80
ENDCHAR
STARTCHAR semicolon
ENCODING 59
SWIDTH 277 0
DWIDTH 4 0
BBX 2 10 1 -2
BITMAP
40
40
00
00
00
00
40
40
40
80
ENDCHAR
STARTCHAR less
ENCODING 60
SWIDTH 583 0
DWIDTH 9 0
BBX 7 7 1 2
BITMAP
02
1C
60
80
60
1C
02
ENDCHAR
STARTCHAR equal
ENCODING 61
SWIDTH 583 0
DWIDTH 9 0
BBX 7 4 1 3
BITMAP
FE
00
00
FE
ENDCHAR
STARTCHAR greater
ENCODING 62
SWIDTH 583 0
DWIDTH 9 0
BBX 7 7 1 2
BITMAP
80
70
0C
02
0C
70
80
ENDCHAR
STARTCHAR question
ENCODING 63
SWIDTH 556 0
DWIDTH 8 0
BBX 6 10 1 0
BITMAP
78
84
84
04
08
10
20
00
20
20
ENDCHAR
STARTCHAR at
ENCODING 64
SWIDTH 1015 0
DWIDTH 15 0
BBX 13 13 1 -2
BITMAP
0FC0
1020
2010
C748
88C8
9088
9088
9088
9190
8E60
4000
2020
1FC0
ENDCHAR
STARTCHAR A
ENCODING 65
SWIDTH 666 0
DWIDTH 10 0
BBX 9 10 0 0
BITMAP
0800
1400
1400
1400
2200
2200
7F00
4100
4100
8080
ENDCHAR
STARTCHAR B
ENCODING 66
SWIDTH 666 0
DWIDTH 10 0
BBX 8 10 1 0
BITMAP
FE
81
81
81
FE
83
81
81
81
FE
ENDCHAR
STARTCHAR C
ENCODING 67
SWIDTH 722 0
DWIDTH 11 0
BBX 9 10 1 0
BITMAP
1E00
6100
4080
8000
8000
8000
8000
4080
6100
1E00
ENDCHAR
STARTCHAR D
ENCODING 68
SWIDTH 722 0
DWIDTH 11 0
BBX 9 10 1 0
BITMAP
FC00
8300
8100
8080
8080
8080
8080
8100
8300
FC00
ENDCHAR
STARTCHAR E
ENCODING 69
SWIDTH 666 0
DWIDTH 10 0
BBX 8 10 1 0
BITMAP
FF
80
80
80
FE
80
80
80
80
FF
ENDCHAR
STARTCHAR F
ENCODING 70
SWIDTH 610 0
DWIDTH 9 0
BBX 7 10 1 0
BITMAP
FE
80
80
80
FC
80
80
80
80
80
ENDCHAR
STARTCHAR G
ENCODING 71
SWIDTH 777 0
DWIDTH 12 0
BBX 9 10 1 0
BITMAP
1E00
6100
4080
8000
8000
8780
8080
4080
6180
1E00
ENDCHAR
STARTCHAR H
ENCODING 72
SWIDTH 722 0
DWIDTH 11 0
BBX 8 10 1 0
BITMAP
81
81
81
81
FF
81
81
81
81
81
ENDCHAR
STARTCHAR I
ENCODING 73
SWIDTH 277 0
DWIDTH 4 0
BBX 1 10 1 0
BITMAP
80
80
80
80
80
80
80
80
80
80
ENDCHAR
STARTCHAR J
ENCODING 74
SWIDTH 500 0
DWIDTH 8 0
BBX 6 10 0 0
BITMAP
1C
04
04
04
04
04
04
84
84
78
ENDCHAR
STARTCHAR K
ENCODING 75
SWIDTH 666 0
DWIDTH 10 0
BBX 9 10 1 0
BITMAP
8100
8200
8400
8800
B000
C800
8400
8200
8100
8080
ENDCHAR
STARTCHAR L
ENCODING 76
SWIDTH 556 0
DWIDTH 8 0
BBX 6 10 1 0
BITMAP
80
80
80
80
80
80
80
80
80
FC
ENDCHAR
STARTCHAR M
ENCODING 77
SWIDTH 833 0
DWIDTH 12 0
BBX 9 10 1 0
BITMAP
8080
C180
C180
A280
A280
A280
9480
9480
8880
8880
ENDCHAR
STARTCHAR N
ENCODING 78
SWIDTH 722 0
DWIDTH 11 0
BBX 8 10 1 0
BITMAP
81
C1
A1
A1
91
89
85
85
83
81
ENDCHAR
STARTCHAR O
ENCODING 79
SWIDTH 777 0
DWIDTH 12 0
BBX 10 10 1 0
BITMAP
1E00
6180
4080
8040
8040
8040
8040
4080
6180
1E00
ENDCHAR
STARTCHAR P
ENCODING 80
SWIDTH 666 0
DWIDTH 10 0
BBX 8 10 1 0
BITMAP
FE
83
81
81
FE
80
80
80
80
80
ENDCHAR
STARTCHAR Q
ENCODING 81
SWIDTH 777 0
DWIDTH 12 0
BBX 10 13 1 -3
BITMAP
1E00
6180
4080
8040
8040
8040
8040
4080
6180
1E00
0400
0200
0180
ENDCHAR
STARTCHAR R
ENCODING 82
SWIDTH 722 0
DWIDTH 11 0
BBX 9 10 1 0
BITMAP
FF00
8080
8080
8080
FF00
8800
8400
8200
8100
8080
ENDCHAR
STARTCHAR S
ENCODING 83
SWIDTH 666 0
DWIDTH 10 0
BBX 8 10 1 0
BITMAP
7E
81
80
80
70
0E
01
01
81
7E
ENDCHAR
STARTCHAR T
ENCODING 84
SWIDTH 610 0
DWIDTH 9 0
BBX 9 10 0 0
BITMAP
FF80
0800
0800
0800
0800
0800
0800
0800
0800
0800
ENDCHAR
STARTCHAR U
ENCODING 85
SWIDTH 722 0
DWIDTH 11 0
BBX 8 10 1 0
BITMAP
81
81
81
81
81
81
81
81
42
3C
ENDCHAR
STARTCHAR V
ENCODING 86
SWIDTH 666 0
DWIDTH 10 0
BBX 9 10 0 0
BITMAP
8080
4100
4100
4100
2200
2200
2200
1400
1400
0800
ENDCHAR
STARTCHAR W
ENCODING 87
SWIDTH 943 0
DWIDTH 14 0
BBX 13 10 1 0
BITMAP
8208
8208
4510
4510
4510
28A0
28A0
28A0
30C0
1040
ENDCHAR
STARTCHAR X
ENCODING 88
SWIDTH 666 0
DWIDTH 10 0
BBX 9 10 0 0
BITMAP
8080
4100
2200
1400
0800
0800
1400
2200
4100
8080
ENDCHAR
STARTCHAR Y
ENCODING 89
SWIDTH 666 0
DWIDTH 10 0
BBX 7 10 1 0
BITMAP
82
44
44
28
28
10
10
10
10
10
ENDCHAR
STARTCHAR Z
ENCODING 90
SWIDTH 610 0
DWIDTH 9 0
BBX 6 10 1 0
BITMAP
FC
04
08
10
10
20
20
40
80
FC
ENDCHAR
STARTCHAR bracketleft
ENCODING 91
SWIDTH 277 0
DWIDTH 4 0
BBX 3 14 1 -3
BITMAP
E0
80
80
80
80
80
80
80
80
80
80
80
80
E0
ENDCHAR
STARTCHAR backslash
ENCODING 92
SWIDTH 277 0
DWIDTH 4 0
BBX 4 11 0 0
BITMAP
80
80
40
40
40
40
20
20
20
10
10
ENDCHAR
STARTCHAR bracketright
ENCODING 93
SWIDTH 277 0
DWIDTH 4 0
BBX 3 14 0 -3
BITMAP
E0
20
20
20
20
20
20
20
20
20
20
20
20
E0
ENDCHAR
STARTCHAR asciicircum
ENCODING 94
SWIDTH 469 0
DWIDTH 7 0
BBX 5 5 0 5
BITMAP
20
50
50
90
88
ENDCHAR
STARTCHAR underscore
ENCODING 95
SWIDTH 556 0
DWIDTH 8 0
BBX 8 1 0 -3
BITMAP
FF
ENDCHAR
STARTCHAR grave
ENCODING 96
SWIDTH 333 0
DWIDTH 5 0
BBX 3 2 1 9
BITMAP
C0
20
ENDCHAR
STARTCHAR a
ENCODING 97
SWIDTH 556 0
DWIDTH 8 0
BBX 7 8 1 0
BITMAP
78
84
04
7C
C4
84
8C
72
ENDCHAR
STARTCHAR b
ENCODING 98
SWIDTH 556 0
DWIDTH 8 0
BBX 6 11 1 0
BITMAP
80
80
80
B8
C4
84
84
84
84
C4
B8
ENDCHAR
STARTCHAR c
ENCODING 99
SWIDTH 500 0
DWIDTH 8 0
BBX 6 8 1 0
BITMAP
78
84
80
80
80
80
84
78
ENDCHAR
STARTCHAR d
ENCODING 100
SWIDTH 556 0
DWIDTH 8 0
BBX 6 11 1 0
BITMAP
04
04
04
74
8C
84
84
84
84
8C
74
ENDCHAR
STARTCHAR e
ENCODING 101
SWIDTH 556 0
DWIDTH 8 0
BBX 6 8 1 0
BITMAP
78
84
84
FC
80
80
84
78
ENDCHAR
STARTCHAR f
ENCODING 102
SWIDTH 277 0
DWIDTH 4 0
BBX 4 11 0 0
BITMAP
30
40
40
F0
40
40
40
40
40
40
40
ENDCHAR
STARTCHAR g
ENCODING 103
SWIDTH 556 0
DWIDTH 8 0
BBX 6 11 1 -3
BITMAP
74
8C
84
84
84
84
8C
74
04
84
78
ENDCHAR
STARTCHAR h
ENCODING 104
SWIDTH 556 0
DWIDTH 8 0
BBX 6 11 1 0
BITMAP
80
80
80
B8
C4
84
84
84
84
84
84
ENDCHAR
STARTCHAR i
ENCODING 105
SWIDTH 222 0
DWIDTH 3 0
BBX 1 11 1 0
BITMAP
80
00
00
80
80
80
80
80
80
80
80
ENDCHAR
STARTCHAR j
ENCODING 106
SWIDTH 222 0
DWIDTH 3 0
BBX 2 14 0 -3
BITMAP
40
00
00
40
40
40
40
40
40
40
40
40
40
80
ENDCHAR
STARTCHAR k
ENCODING 107
SWIDTH 500 0
DWIDTH 8 0
BBX 6 11 1 0
BITMAP
80
80
80
88
90
A0
C0
A0
90
88
84
ENDCHAR
STARTCHAR l
ENCODING 108
SWIDTH 222 0
DWIDTH 3 0
BBX 1 11 1 0
BITMAP
80
80
80
80
80
80
80
80
80
80
80
ENDCHAR
STARTCHAR m
ENCODING 109
SWIDTH 833 0
DWIDTH 12 0
BBX 11 8 1 0
BITMAP
B9C0
C620
8420
8420
8420
8420
8420
8420
ENDCHAR
STARTCHAR n
ENCODING 110
SWIDTH 556 0
DWIDTH 8 0
BBX 6 8 1 0
BITMAP
B8
C4
84
84
84
84
84
84
ENDCHAR
STARTCHAR o
ENCODING 111
SWIDTH 556 0
DWIDTH 8 0
BBX 6 8 1 0
BITMAP
78
84
84
84
84
84
84
78
ENDCHAR
STARTCHAR p
ENCODING 112
SWIDTH 556 0
DWIDTH 8 0
BBX 6 11 1 -3
BITMAP
B8
C4
84
84
84
84
C4
B8
80
80
80
ENDCHAR
STARTCHAR q
ENCODING 113
SWIDTH 556 0
DWIDTH 8 0
BBX 6 11 1 -3
BITMAP
74
8C
84
84
84
84
8C
74
04
04
04
ENDCHAR
STARTCHAR r
ENCODING 114
SWIDTH 333 0
DWIDTH 5 0
BBX 4 8 1 0
BITMAP
B0
C0
80
80
80
80
80
80
ENDCHAR
STARTCHAR s
ENCODING 115
SWIDTH 500 0
DWIDTH 8 0
BBX 6 8 1 0
BITMAP
78
84
80
70
0C
04
84
78
ENDCHAR
STARTCHAR t
ENCODING 116
SWIDTH 277 0
DWIDTH 4 0
BBX 4 10 0 0
BITMAP
40
40
F0
40
40
40
40
40
40
30
ENDCHAR
STARTCHAR u
ENCODING 117
SWIDTH 556 0
DWIDTH 8 0
BBX 6 8 1 0
BITMAP
84
84
84
84
84
84
8C
74
ENDCHAR
STARTCHAR v
ENCODING 118
SWIDTH 500 0
DWIDTH 8 0
BBX 7 8 0 0
BITMAP
82
82
44
44
44
28
28
10
ENDCHAR
STARTCHAR w
ENCODING 119
SWIDTH 722 0
DWIDTH 11 0
BBX 9 8 1 0
BITMAP
8880
8880
9480
5500
5500
5500
2200
2200
ENDCHAR
STARTCHAR x
ENCODING 120
SWIDTH 500 0
DWIDTH 8 0
BBX 7 8 0 0
BITMAP
82
44
28
10
28
28
44
82
ENDCHAR
STARTCHAR y
ENCODING 121
SWIDTH 500 0
DWIDTH 8 0
BBX 7 11 0 -3
BITMAP
82
82
44
44
48
28
28
10
10
20
C0
ENDCHAR
STARTCHAR z
ENCODING 122
SWIDTH 500 0
DWIDTH 8 0
BBX 6 8 1 0
BITMAP
FC
04
08
10
20
40
80
FC
ENDCHAR
STARTCHAR braceleft
ENCODING 123
SWIDTH 333 0
DWIDTH 5 0
BBX 5 14 0 -3
BITMAP
18
20
20
20
20
20
C0
20
20
20
20
20
20
18
ENDCHAR
STARTCHAR bar
ENCODING 124
SWIDTH 259 0
DWIDTH 4 0
BBX 1 14 1 -3
BITMAP
80
80
80
80
80
80
80
80
80
80
80
80
80
80
ENDCHAR
STARTCHAR braceright
ENCODING 125
SWIDTH 333 0
DWIDTH 5 0
BBX 5 14 0 -3
BITMAP
C0
20
20
20
20
20
18
20
20
20
20
20
20
C0
ENDCHAR
STARTCHAR asciitilde
ENCODING 126
SWIDTH 583 0
DWIDTH 9 0
BBX 7 3 1 4
BITMAP
60
92
0C
ENDCHAR
STARTCHAR space.dup1
ENCODING 160
SWIDTH 277 0
DWIDTH 4 0
BBX 1 1 0 0
BITMAP
00
ENDCHAR
STARTCHAR exclamdown
ENCODING 161
SWIDTH 333 0
DWIDTH 5 0
BBX 1 10 3 -2
BITMAP
80
80
00
80
80
80
80
80
80
80
ENDCHAR
STARTCHAR cent
ENCODING 162
SWIDTH 556 0
DWIDTH 8 0
BBX 6 10 1 0
BITMAP
10
38
44
80
80
80
80
44
38
10
ENDCHAR
STARTCHAR sterling
ENCODING 163
SWIDTH 556 0
DWIDTH 8 0
BBX 6 10 1 0
BITMAP
38
44
40
40
F0
40
40
40
84
F8
ENDCHAR
STARTCHAR currency
ENCODING 164
SWIDTH 556 0
DWIDTH 8 0
BBX 6 6 1 2
BITMAP
B4
48
84
84
48
B4
ENDCHAR
STARTCHAR yen
ENCODING 165
SWIDTH 556 0
DWIDTH 8 0
BBX 7 10 0 0
BITMAP
82
44
44
28
28
FE
10
FE
10
10
ENDCHAR
STARTCHAR brokenbar
ENCODING 166
SWIDTH 259 0
DWIDTH 4 0
BBX 1 14 1 -3
BITMAP
80
80
80
80
80
80
00
00
80
80
80
80
80
80
ENDCHAR
STARTCHAR section
ENCODING 167
SWIDTH 556 0
DWIDTH 8 0
BBX 6 12 1 -1
BITMAP
78
84
80
70
8C
84
84
78
04
04
84
78
ENDCHAR
STARTCHAR dieresis
ENCODING 168
SWIDTH 333 0
DWIDTH 5 0
BBX 3 1 1 10
BITMAP
A0
ENDCHAR
STARTCHAR copyright
ENCODING 169
SWIDTH 736 0
DWIDTH 11 0
BBX 10 10 0 0
BITMAP
1E00
6180
4C80
9240
9040
9040
9240
4C80
6180
1E00
ENDCHAR
STARTCHAR ordfeminine
ENCODING 170
SWIDTH 370 0
DWIDTH 6 0
BBX 5 6 0 4
BITMAP
E0
10
70
90
90
68
ENDCHAR
STARTCHAR guillemotleft
ENCODING 171
SWIDTH 556 0
DWIDTH 8 0
BBX 7 7 0 1
BITMAP
12
24
48
90
48
24
12
ENDCHAR
STARTCHAR logicalnot
ENCODING 172
SWIDTH 583 0
DWIDTH 9 0
BBX 7 4 1 2
BITMAP
FE
02
02
02
ENDCHAR
STARTCHAR hyphen.dup2
ENCODING 173
SWIDTH 333 0
DWIDTH 5 0
BBX 3 1 1 4
BITMAP
E0
ENDCHAR
STARTCHAR registered
ENCODING 174
SWIDTH 736 0
DWIDTH 11 0
BBX 10 10 0 0
BITMAP
1E00
6180
5C80
9240
9240
9C40
9440
5280
6180
1E00
ENDCHAR
STARTCHAR macron
ENCODING 175
SWIDTH 552 0
DWIDTH 8 0
BBX 8 1 0 11
BITMAP
FF
ENDCHAR
STARTCHAR degree
ENCODING 176
SWIDTH 399 0
DWIDTH 6 0
BBX 4 4 1 6
BITMAP
60
90
90
60
ENDCHAR
STARTCHAR plusminus
ENCODING 177
SWIDTH 548 0
DWIDTH 8 0
BBX 7 9 1 0
BITMAP
10
10
10
FE
10
10
10
00
FE
ENDCHAR
STARTCHAR uni00B2
ENCODING 178
SWIDTH 333 0
DWIDTH 5 0
BBX 4 6 0 4
BITMAP
E0
10
10
60
80
F0
ENDCHAR
STARTCHAR uni00B3
ENCODING 179
SWIDTH 333 0
DWIDTH 5 0
BBX 4 6 0 4
BITMAP
E0
10
60
10
10
E0
ENDCHAR
STARTCHAR acute
ENCODING 180
SWIDTH 333 0
DWIDTH 5 0
BBX 3 2 1 9
BITMAP
60
80
ENDCHAR
STARTCHAR mu
ENCODING 181
SWIDTH 576 0
DWIDTH 9 0
BBX 7 11 1 -3
BITMAP
84
84
84
84
84
84
8C
F2
80
80
80
ENDCHAR
STARTCHAR paragraph
ENCODING 182
SWIDTH 537 0
DWIDTH 8 0
BBX 7 12 1 -2
BITMAP
7E
F4
F4
F4
74
14
14
14
14
14
14
14
ENDCHAR
STARTCHAR periodcentered
ENCODING 183
SWIDTH 277 0
DWIDTH 4 0
BBX 1 2 1 4
BITMAP
80
80
ENDCHAR
STARTCHAR cedilla
ENCODING 184
SWIDTH 333 0
DWIDTH 5 0
BBX 3 4 1 -4
BITMAP
80
C0
20
C0
ENDCHAR
STARTCHAR uni00B9
ENCODING 185
SWIDTH 333 0
DWIDTH 5 0
BBX 3 6 1 4
BITMAP
40
40
40
40
40
E0
ENDCHAR
STARTCHAR ordmasculine
ENCODING 186
SWIDTH 365 0
DWIDTH 5 0
BBX 4 6 0 4
BITMAP
60
90
90
90
90
60
ENDCHAR
STARTCHAR guillemotright
ENCODING 187
SWIDTH 556 0
DWIDTH 8 0
BBX 7 7 1 1
BITMAP
90
48
24
12
24
48
90
ENDCHAR
STARTCHAR onequarter
ENCODING 188
SWIDTH 833 0
DWIDTH 13 0
BBX 11 10 1 0
BITMAP
4080
4100
4100
4200
4440
E4C0
0940
1240
13E0
2040
ENDCHAR
STARTCHAR onehalf
ENCODING 189
SWIDTH 833 0
DWIDTH 13 0
BBX 11 10 1 0
BITMAP
4080
4100
4100
4200
45C0
E420
0820
10C0
1100
21E0
ENDCHAR
STARTCHAR threequarters
ENCODING 190
SWIDTH 833 0
DWIDTH 13 0
BBX 12 10 0 0
BITMAP
E040
1080
6080
1100
1220
E260
04A0
0920
09F0
1020
ENDCHAR
STARTCHAR questiondown
ENCODING 191
SWIDTH 610 0
DWIDTH 9 0
BBX 6 10 2 -2
BITMAP
10
10
00
10
20
40
80
84
84
78
ENDCHAR
STARTCHAR Agrave
ENCODING 192
SWIDTH 666 0
DWIDTH 10 0
BBX 9 13 0 0
BITMAP
1800
0400
0000
0800
1400
1400
1400
2200
2200
7F00
4100
4100
8080
ENDCHAR
STARTCHAR Aacute
ENCODING 193
SWIDTH 666 0
DWIDTH 10 0
BBX 9 13 0 0
BITMAP
0600
0800
0000
0800
1400
1400
1400
2200
2200
7F00
4100
4100
8080
ENDCHAR
STARTCHAR Acircumflex
ENCODING 194
SWIDTH 666 0
DWIDTH 10 0
BBX 9 13 0 0
BITMAP
0C00
1200
0000
0800
1400
1400
1400
2200
2200
7F00
4100
4100
8080
ENDCHAR
STARTCHAR Atilde
ENCODING 195
SWIDTH 666 0
DWIDTH 10 0
BBX 9 13 0 0
BITMAP
1A00
2400
0000
0800
1400
1400
1400
2200
2200
7F00
4100
4100
8080
ENDCHAR
STARTCHAR Adieresis
ENCODING 196
SWIDTH 666 0
DWIDTH 10 0
BBX 9 12 0 0
BITMAP
1200
0000
0800
1400
1400
1400
2200
2200
7F00
4100
4100
8080
ENDCHAR
STARTCHAR Aring
ENCODING 197
SWIDTH 666 0
DWIDTH 10 0
BBX 9 13 0 0
BITMAP
0C00
1200
1200
0C00
1400
1400
1400
2200
2200
7F00
4100
4100
8080
ENDCHAR
STARTCHAR AE
ENCODING 198
SWIDTH 1000 0
DWIDTH 15 0
BBX 14 10 0 0
BITMAP
03FC
0500
0900
0900
11F8
1100
3F00
4100
4100
81FC
ENDCHAR
STARTCHAR Ccedilla
ENCODING 199
SWIDTH 722 0
DWIDTH 11 0
BBX 9 14 1 -4
BITMAP
1E00
6100
4080
8000
8000
8000
8000
4080
6100
1E00
0800
0C00
0200
0C00
ENDCHAR
STARTCHAR Egrave
ENCODING 200
SWIDTH 666 0
DWIDTH 10 0
BBX 8 13 1 0
BITMAP
30
08
00
FF
80
80
80
FE
80
80
80
80
FF
ENDCHAR
STARTCHAR Eacute
ENCODING 201
SWIDTH 666 0
DWIDTH 10 0
BBX 8 13 1 0
BITMAP
0C
10
00
FF
80
80
80
FE
80
80
80
80
FF
ENDCHAR
STARTCHAR Ecircumflex
ENCODING 202
SWIDTH 666 0
DWIDTH 10 0
BBX 8 13 1 0
BITMAP
18
24
00
FF
80
80
80
FE
80
80
80
80
FF
ENDCHAR
STARTCHAR Edieresis
ENCODING 203
SWIDTH 666 0
DWIDTH 10 0
BBX 8 12 1 0
BITMAP
24
00
FF
80
80
80
FE
80
80
80
80
FF
ENDCHAR
STARTCHAR Igrave
ENCODING 204
SWIDTH 277 0
DWIDTH 4 0
BBX 3 13 0 0
BITMAP
C0
20
00
40
40
40
40
40
40
40
40
40
40
ENDCHAR
STARTCHAR Iacute
ENCODING 205
SWIDTH 277 0
DWIDTH 4 0
BBX 3 13 1 0
BITMAP
60
80
00
80
80
80
80
80
80
80
80
80
80
ENDCHAR
STARTCHAR Icircumflex
ENCODING 206
SWIDTH 277 0
DWIDTH 4 0
BBX 4 13 0 0
BITMAP
60
90
00
40
40
40
40
40
40
40
40
40
40
ENDCHAR
STARTCHAR Idieresis
ENCODING 207
SWIDTH 277 0
DWIDTH 4 0
BBX 4 12 0 0
BITMAP
90
00
40
40
40
40
40
40
40
40
40
40
ENDCHAR
STARTCHAR Eth
ENCODING 208
SWIDTH 722 0
DWIDTH 11 0
BBX 10 10 0 0
BITMAP
7E00
4180
4080
4040
F840
4040
4040
4080
4180
7E00
ENDCHAR
STARTCHAR Ntilde
ENCODING 209
SWIDTH 722 0
DWIDTH 11 0
BBX 8 13 1 0
BITMAP
1A
24
00
81
C1
A1
A1
91
89
85
85
83
81
ENDCHAR
STARTCHAR Ograve
ENCODING 210
SWIDTH 777 0
DWIDTH 12 0
BBX 10 13 1 0
BITMAP
1800
0400
0000
1E00
6180
4080
8040
8040
8040
8040
4080
6180
1E00
ENDCHAR
STARTCHAR Oacute
ENCODING 211
SWIDTH 777 0
DWIDTH 12 0
BBX 10 13 1 0
BITMAP
0600
0800
0000
1E00
6180
4080
8040
8040
8040
8040
4080
6180
1E00
ENDCHAR
STARTCHAR Ocircumflex
ENCODING 212
SWIDTH 777 0
DWIDTH 12 0
BBX 10 13 1 0
BITMAP
0C00
1200
0000
1E00
6180
4080
8040
8040
8040
8040
4080
6180
1E00
ENDCHAR
STARTCHAR Otilde
ENCODING 213
SWIDTH 777 0
DWIDTH 12 0
BBX 10 13 1 0
BITMAP
0D00
1200
0000
1E00
6180
4080
8040
8040
8040
8040
4080
6180
1E00
ENDCHAR
STARTCHAR Odieresis
ENCODING 214
SWIDTH 777 0
DWIDTH 12 0
BBX 10 12 1 0
BITMAP
1200
0000
1E00
6180
4080
8040
8040
8040
8040
4080
6180
1E00
ENDCHAR
STARTCHAR multiply
ENCODING 215
SWIDTH 583 0
DWIDTH 9 0
BBX 5 5 2 3
BITMAP
88
50
20
50
88
ENDCHAR
STARTCHAR Oslash
ENCODING 216
SWIDTH 777 0
DWIDTH 12 0
BBX 10 10 1 0
BITMAP
1E40
6180
4180
8240
8440
8840
9040
6080
6180
9E00
ENDCHAR
STARTCHAR Ugrave
ENCODING 217
SWIDTH 722 0
DWIDTH 11 0
BBX 8 13 1 0
BITMAP
18
04
00
81
81
81
81
81
81
81
81
42
3C
ENDCHAR
STARTCHAR Uacute
ENCODING 218
SWIDTH 722 0
DWIDTH 11 0
BBX 8 13 1 0
BITMAP
0C
10
00
81
81
81
81
81
81
81
81
42
3C
ENDCHAR
STARTCHAR Ucircumflex
ENCODING 219
SWIDTH 722 0
DWIDTH 11 0
BBX 8 13 1 0
BITMAP
18
24
00
81
81
81
81
81
81
81
81
42
3C
ENDCHAR
STARTCHAR Udieresis
ENCODING 220
SWIDTH 722 0
DWIDTH 11 0
BBX 8 12 1 0
BITMAP
24
00
81
81
81
81
81
81
81
81
42
3C
ENDCHAR
STARTCHAR Yacute
ENCODING 221
SWIDTH 666 0
DWIDTH 10 0
BBX 7 13 1 0
BITMAP
0C
10
00
82
44
44
28
28
10
10
10
10
10
ENDCHAR
STARTCHAR Thorn
ENCODING 222
SWIDTH 666 0
DWIDTH 10 0
BBX 8 10 1 0
BITMAP
80
80
FE
81
81
81
81
FE
80
80
ENDCHAR
STARTCHAR germandbls
ENCODING 223
SWIDTH 610 0
DWIDTH 9 0
BBX 7 11 1 0
BITMAP
78
84
84
88
90
90
88
84
82
82
9C
ENDCHAR
STARTCHAR agrave
ENCODING 224
SWIDTH 556 0
DWIDTH 8 0
BBX 7 11 1 0
BITMAP
60
10
00
78
84
04
7C
C4
84
8C
72
ENDCHAR
STARTCHAR aacute
ENCODING 225
SWIDTH 556 0
DWIDTH 8 0
BBX 7 11 1 0
BITMAP
18
20
00
78
84
04
7C
C4
84
8C
72
ENDCHAR
STARTCHAR acircumflex
ENCODING 226
SWIDTH 556 0
DWIDTH 8 0
BBX 7 11 1 0
BITMAP
30
48
00
78
84
04
7C
C4
84
8C
72
ENDCHAR
STARTCHAR atilde
ENCODING 227
SWIDTH 556 0
DWIDTH 8 0
BBX 7 11 1 0
BITMAP
14
28
00
78
84
04
7C
C4
84
8C
72
ENDCHAR
STARTCHAR adieresis
ENCODING 228
SWIDTH 556 0
DWIDTH 8 0
BBX 7 10 1 0
BITMAP
28
00
78
84
04
7C
C4
84
8C
72
ENDCHAR
STARTCHAR aring
ENCODING 229
SWIDTH 556 0
DWIDTH 8 0
BBX 7 13 1 0
BITMAP
30
48
48
30
00
78
84
04
7C
C4
84
8C
72
ENDCHAR
STARTCHAR ae
ENCODING 230
SWIDTH 889 0
DWIDTH 13 0
BBX 11 8 1 0
BITMAP
7BC0
8420
0420
7FE0
8400
8400
8C20
73C0
ENDCHAR
STARTCHAR ccedilla
ENCODING 231
SWIDTH 500 0
DWIDTH 8 0
BBX 6 12 1 -4
BITMAP
78
84
80
80
80
80
84
78
20
30
08
30
ENDCHAR
STARTCHAR egrave
ENCODING 232
SWIDTH 556 0
DWIDTH 8 0
BBX 6 11 1 0
BITMAP
30
08
00
78
84
84
FC
80
80
84
78
ENDCHAR
STARTCHAR eacute
ENCODING 233
SWIDTH 556 0
DWIDTH 8 0
BBX 6 11 1 0
BITMAP
18
20
00
78
84
84
FC
80
80
84
78
ENDCHAR
STARTCHAR ecircumflex
ENCODING 234
SWIDTH 556 0
DWIDTH 8 0
BBX 6 11 1 0
BITMAP
30
48
00
78
84
84
FC
80
80
84
78
ENDCHAR
STARTCHAR edieresis
ENCODING 235
SWIDTH 556 0
DWIDTH 8 0
BBX 6 10 1 0
BITMAP
28
00
78
84
84
FC
80
80
84
78
ENDCHAR
STARTCHAR igrave
ENCODING 236
SWIDTH 277 0
DWIDTH 4 0
BBX 3 11 0 0
BITMAP
C0
20
00
40
40
40
40
40
40
40
40
ENDCHAR
STARTCHAR iacute
ENCODING 237
SWIDTH 277 0
DWIDTH 4 0
BBX 3 11 1 0
BITMAP
60
80
00
80
80
80
80
80
80
80
80
ENDCHAR
STARTCHAR icircumflex
ENCODING 238
SWIDTH 277 0
DWIDTH 4 0
BBX 4 11 0 0
BITMAP
60
90
00
40
40
40
40
40
40
40
40
ENDCHAR
STARTCHAR idieresis
ENCODING 239
SWIDTH 277 0
DWIDTH 4 0
BBX 3 10 0 0
BITMAP
A0
00
40
40
40
40
40
40
40
40
ENDCHAR
STARTCHAR eth
ENCODING 240
SWIDTH 556 0
DWIDTH 8 0
BBX 6 11 1 0
BITMAP
28
10
28
08
7C
84
84
84
84
84
78
ENDCHAR
STARTCHAR ntilde
ENCODING 241
SWIDTH 556 0
DWIDTH 8 0
BBX 6 11 1 0
BITMAP
28
50
00
B8
C4
84
84
84
84
84
84
ENDCHAR
STARTCHAR ograve
ENCODING 242
SWIDTH 556 0
DWIDTH 8 0
BBX 6 11 1 0
BITMAP
30
08
00
78
84
84
84
84
84
84
78
ENDCHAR
STARTCHAR oacute
ENCODING 243
SWIDTH 556 0
DWIDTH 8 0
BBX 6 11 1 0
BITMAP
18
20
00
78
84
84
84
84
84
84
78
ENDCHAR
STARTCHAR ocircumflex
ENCODING 244
SWIDTH 556 0
DWIDTH 8 0
BBX 6 11 1 0
BITMAP
30
48
00
78
84
84
84
84
84
84
78
ENDCHAR
STARTCHAR otilde
ENCODING 245
SWIDTH 556 0
DWIDTH 8 0
BBX 6 11 1 0
BITMAP
28
50
00
78
84
84
84
84
84
84
78
ENDCHAR
STARTCHAR odieresis
ENCODING 246
SWIDTH 556 0
DWIDTH 8 0
BBX 6 10 1 0
BITMAP
28
00
78
84
84
84
84
84
84
78
ENDCHAR
STARTCHAR divide
ENCODING 247
SWIDTH 548 0
DWIDTH 8 0
BBX 7 7 1 2
BITMAP
10
00
00
FE
00
00
10
ENDCHAR
STARTCHAR oslash
ENCODING 248
SWIDTH 610 0
DWIDTH 9 0
BBX 6 8 1 0
BITMAP
7C
84
8C
94
A4
C4
84
F8
ENDCHAR
STARTCHAR ugrave
ENCODING 249
SWIDTH 556 0
DWIDTH 8 0
BBX 6 11 1 0
BITMAP
30
08
00
84
84
84
84
84
84
8C
74
ENDCHAR
STARTCHAR uacute
ENCODING 250
SWIDTH 556 0
DWIDTH 8 0
BBX 6 11 1 0
BITMAP
18
20
00
84
84
84
84
84
84
8C
74
ENDCHAR
STARTCHAR ucircumflex
ENCODING 251
SWIDTH 556 0
DWIDTH 8 0
BBX 6 11 1 0
BITMAP
30
48
00
84
84
84
84
84
84
8C
74
ENDCHAR
STARTCHAR udieresis
ENCODING 252
SWIDTH 556 0
DWIDTH 8 0
BBX 6 10 1 0
BITMAP
28
00
84
84
84
84
84
84
8C
74
ENDCHAR
STARTCHAR yacute
ENCODING 253
SWIDTH 500 0
DWIDTH 8 0
BBX 7 14 0 -3
BITMAP
0C
10
00
82
82
44
44
48
28
28
10
10
20
C0
ENDCHAR
STARTCHAR thorn
ENCODING 254
SWIDTH 556 0
DWIDTH 8 0
BBX 6 14 1 -3
BITMAP
80
80
80
B8
C4
84
84
84
84
C4
B8
80
80
80
ENDCHAR
STARTCHAR ydieresis
ENCODING 255
SWIDTH 500 0
DWIDTH 8 0
BBX 7 13 0 -3
BITMAP
28
00
82
82
44
44
48
28
28
10
10
20
C0
ENDCHAR
STARTCHAR Amacron
ENCODING 256
SWIDTH 666 0
DWIDTH 10 0
BBX 9 12 0 0
BITMAP
3E00
0000
0800
1400
1400
1400
2200
2200
7F00
4100
4100
8080
ENDCHAR
STARTCHAR amacron
ENCODING 257
SWIDTH 556 0
DWIDTH 8 0
BBX 7 10 1 0
BITMAP
7C
00
78
84
04
7C
C4
84
8C
72
ENDCHAR
STARTCHAR Abreve
ENCODING 258
SWIDTH 666 0
DWIDTH 10 0
BBX 9 13 0 0
BITMAP
2200
1C00
0000
0800
1400
1400
1400
2200
2200
7F00
4100
4100
8080
ENDCHAR
STARTCHAR abreve
ENCODING 259
SWIDTH 556 0
DWIDTH 8 0
BBX 7 11 1 0
BITMAP
44
38
00
78
84
04
7C
C4
84
8C
72
ENDCHAR
STARTCHAR Aogonek
ENCODING 260
SWIDTH 666 0
DWIDTH 10 0
BBX 10 14 0 -4
BITMAP
0800
1400
1400
1400
2200
2200
7F00
4100
4100
8080
0080
0100
0100
00C0
ENDCHAR
STARTCHAR aogonek
ENCODING 261
SWIDTH 556 0
DWIDTH 8 0
BBX 8 12 1 -4
BITMAP
78
84
04
7C
C4
84
8C
72
02
04
04
03
ENDCHAR
STARTCHAR Cacute
ENCODING 262
SWIDTH 722 0
DWIDTH 11 0
BBX 9 13 1 0
BITMAP
0600
0800
0000
1E00
6100
4080
8000
8000
8000
8000
4080
6100
1E00
ENDCHAR
STARTCHAR cacute
ENCODING 263
SWIDTH 500 0
DWIDTH 8 0
BBX 6 11 1 0
BITMAP
0C
10
00
78
84
80
80
80
80
84
78
ENDCHAR
STARTCHAR Ccircumflex
ENCODING 264
SWIDTH 722 0
DWIDTH 11 0
BBX 9 13 1 0
BITMAP
0C00
1200
0000
1E00
6100
4080
8000
8000
8000
8000
4080
6100
1E00
ENDCHAR
STARTCHAR ccircumflex
ENCODING 265
SWIDTH 500 0
DWIDTH 8 0
BBX 6 11 1 0
BITMAP
30
48
00
78
84
80
80
80
80
84
78
ENDCHAR
STARTCHAR Cdotaccent
ENCODING 266
SWIDTH 722 0
DWIDTH 11 0
BBX 9 12 1 0
BITMAP
0400
0000
1E00
6100
4080
8000
8000
8000
8000
4080
6100
1E00
ENDCHAR
STARTCHAR cdotaccent
ENCODING 267
SWIDTH 500 0
DWIDTH 8 0
BBX 6 10 1 0
BITMAP
10
00
78
84
80
80
80
80
84
78
ENDCHAR
STARTCHAR Ccaron
ENCODING 268
SWIDTH 722 0
DWIDTH 11 0
BBX 9 13 1 0
BITMAP
1200
0C00
0000
1E00
6100
4080
8000
8000
8000
8000
4080
6100
1E00
ENDCHAR
STARTCHAR ccaron
ENCODING 269
SWIDTH 500 0
DWIDTH 8 0
BBX 6 11 1 0
BITMAP
48
30
00
78
84
80
80
80
80
84
78
ENDCHAR
STARTCHAR Dcaron
ENCODING 270
SWIDTH 722 0
DWIDTH 11 0
BBX 9 13 1 0
BITMAP
2400
1800
0000
FC00
8300
8100
8080
8080
8080
8080
8100
8300
FC00
ENDCHAR
STARTCHAR dcaron
ENCODING 271
SWIDTH 614 0
DWIDTH 9 0
BBX 8 11 1 0
BITMAP
05
05
05
74
8C
84
84
84
84
8C
74
ENDCHAR
STARTCHAR Dcroat
ENCODING 272
SWIDTH 722 0
DWIDTH 11 0
BBX 10 10 0 0
BITMAP
7E00
4180
4080
4040
F840
4040
4040
4080
4180
7E00
ENDCHAR
STARTCHAR dcroat
ENCODING 273
SWIDTH 556 0
DWIDTH 8 0
BBX 7 11 1 0
BITMAP
04
1E
04
74
8C
84
84
84
84
8C
74
ENDCHAR
STARTCHAR Emacron
ENCODING 274
SWIDTH 666 0
DWIDTH 10 0
BBX 8 12 1 0
BITMAP
3E
00
FF
80
80
80
FE
80
80
80
80
FF
ENDCHAR
STARTCHAR emacron
ENCODING 275
SWIDTH 556 0
DWIDTH 8 0
BBX 6 10 1 0
BITMAP
7C
00
78
84
84
FC
80
80
84
78
ENDCHAR
STARTCHAR Ebreve
ENCODING 276
SWIDTH 666 0
DWIDTH 10 0
BBX 8 13 1 0
BITMAP
22
1C
00
FF
80
80
80
FE
80
80
80
80
FF
ENDCHAR
STARTCHAR ebreve
ENCODING 277
SWIDTH 556 0
DWIDTH 8 0
BBX 6 11 1 0
BITMAP
44
38
00
78
84
84
FC
80
80
84
78
ENDCHAR
STARTCHAR Edotaccent
ENCODING 278
SWIDTH 666 0
DWIDTH 10 0
BBX 8 12 1 0
BITMAP
08
00
FF
80
80
80
FE
80
80
80
80
FF
ENDCHAR
STARTCHAR edotaccent
ENCODING 279
SWIDTH 556 0
DWIDTH 8 0
BBX 6 10 1 0
BITMAP
10
00
78
84
84
FC
80
80
84
78
ENDCHAR
STARTCHAR Eogonek
ENCODING 280
SWIDTH 666 0
DWIDTH 10 0
BBX 9 14 1 -4
BITMAP
FF00
8000
8000
8000
FE00
8000
8000
8000
8000
FF00
0100
0200
0200
0180
ENDCHAR
STARTCHAR eogonek
ENCODING 281
SWIDTH 556 0
DWIDTH 8 0
BBX 6 12 1 -4
BITMAP
78
84
84
FC
80
80
84
78
10
20
20
18
ENDCHAR
STARTCHAR Ecaron
ENCODING 282
SWIDTH 666 0
DWIDTH 10 0
BBX 8 13 1 0
BITMAP
24
18
00
FF
80
80
80
FE
80
80
80
80
FF
ENDCHAR
STARTCHAR ecaron
ENCODING 283
SWIDTH 556 0
DWIDTH 8 0
BBX 6 11 1 0
BITMAP
48
30
00
78
84
84
FC
80
80
84
78
ENDCHAR
STARTCHAR Gcircumflex
ENCODING 284
SWIDTH 777 0
DWIDTH 12 0
BBX 9 13 1 0
BITMAP
0C00
1200
0000
1E00
6100
4080
8000
8000
8780
8080
4080
6180
1E00
ENDCHAR
STARTCHAR gcircumflex
ENCODING 285
SWIDTH 556 0
DWIDTH 8 0
BBX 6 14 1 -3
BITMAP
30
48
00
74
8C
84
84
84
84
8C
74
04
84
78
ENDCHAR
STARTCHAR Gbreve
ENCODING 286
SWIDTH 777 0
DWIDTH 12 0
BBX 9 13 1 0
BITMAP
1100
0E00
0000
1E00
6100
4080
8000
8000
8780
8080
4080
6180
1E00
ENDCHAR
STARTCHAR gbreve
ENCODING 287
SWIDTH 556 0
DWIDTH 8 0
BBX 6 14 1 -3
BITMAP
44
38
00
74
8C
84
84
84
84
8C
74
04
84
78
ENDCHAR
STARTCHAR Gdotaccent
ENCODING 288
SWIDTH 777 0
DWIDTH 12 0
BBX 9 12 1 0
BITMAP
0400
0000
1E00
6100
4080
8000
8000
8780
8080
4080
6180
1E00
ENDCHAR
STARTCHAR gdotaccent
ENCODING 289
SWIDTH 556 0
DWIDTH 8 0
BBX 6 13 1 -3
BITMAP
10
00
74
8C
84
84
84
84
8C
74
04
84
78
ENDCHAR
STARTCHAR Gcommaaccent
ENCODING 290
SWIDTH 777 0
DWIDTH 12 0
BBX 9 14 1 -4
BITMAP
1E00
6100
4080
8000
8000
8780
8080
4080
6180
1E00
0000
0400
0400
0800
ENDCHAR
STARTCHAR gcommaaccent
ENCODING 291
SWIDTH 556 0
DWIDTH 8 0
BBX 6 15 1 -3
BITMAP
10
10
10
00
74
8C
84
84
84
84
8C
74
04
84
78
ENDCHAR
STARTCHAR Hcircumflex
ENCODING 292
SWIDTH 722 0
DWIDTH 11 0
BBX 8 13 1 0
BITMAP
18
24
00
81
81
81
81
FF
81
81
81
81
81
ENDCHAR
STARTCHAR hcircumflex
ENCODING 293
SWIDTH 556 0
DWIDTH 8 0
BBX 6 14 1 0
BITMAP
30
48
00
80
80
80
B8
C4
84
84
84
84
84
84
ENDCHAR
STARTCHAR Hbar
ENCODING 294
SWIDTH 722 0
DWIDTH 11 0
BBX 10 10 0 0
BITMAP
4080
4080
FFC0
4080
7F80
4080
4080
4080
4080
4080
ENDCHAR
STARTCHAR hbar
ENCODING 295
SWIDTH 556 0
DWIDTH 8 0
BBX 7 11 0 0
BITMAP
40
F0
40
5C
62
42
42
42
42
42
42
ENDCHAR
STARTCHAR Itilde
ENCODING 296
SWIDTH 277 0
DWIDTH 4 0
BBX 5 13 -1 0
BITMAP
68
90
00
20
20
20
20
20
20
20
20
20
20
ENDCHAR
STARTCHAR itilde
ENCODING 297
SWIDTH 277 0
DWIDTH 4 0
BBX 4 11 0 0
BITMAP
50
A0
00
40
40
40
40
40
40
40
40
ENDCHAR
STARTCHAR Imacron
ENCODING 298
SWIDTH 277 0
DWIDTH 4 0
BBX 5 12 -1 0
BITMAP
F8
00
20
20
20
20
20
20
20
20
20
20
ENDCHAR
STARTCHAR imacron
ENCODING 299
SWIDTH 277 0
DWIDTH 4 0
BBX 5 10 -1 0
BITMAP
F8
00
20
20
20
20
20
20
20
20
ENDCHAR
STARTCHAR Ibreve
ENCODING 300
SWIDTH 277 0
DWIDTH 4 0
BBX 5 13 -1 0
BITMAP
88
70
00
20
20
20
20
20
20
20
20
20
20
ENDCHAR
STARTCHAR ibreve
ENCODING 301
SWIDTH 277 0
DWIDTH 4 0
BBX 5 11 -1 0
BITMAP
88
70
00
20
20
20
20
20
20
20
20
ENDCHAR
STARTCHAR Iogonek
ENCODING 302
SWIDTH 277 0
DWIDTH 4 0
BBX 3 14 0 -4
BITMAP
40
40
40
40
40
40
40
40
40
40
40
80
80
60
ENDCHAR
STARTCHAR iogonek
ENCODING 303
SWIDTH 222 0
DWIDTH 3 0
BBX 3 15 0 -4
BITMAP
40
00
00
40
40
40
40
40
40
40
40
40
80
80
60
ENDCHAR
STARTCHAR Idotaccent
ENCODING 304
SWIDTH 277 0
DWIDTH 4 0
BBX 1 12 1 0
BITMAP
80
00
80
80
80
80
80
80
80
80
80
80
ENDCHAR
STARTCHAR dotlessi
ENCODING 305
SWIDTH 277 0
DWIDTH 4 0
BBX 1 8 1 0
BITMAP
80
80
80
80
80
80
80
80
ENDCHAR
STARTCHAR IJ
ENCODING 306
SWIDTH 734 0
DWIDTH 11 0
BBX 9 10 1 0
BITMAP
8380
8080
8080
8080
8080
8080
8080
9080
9080
8F00
ENDCHAR
STARTCHAR ij
ENCODING 307
SWIDTH 443 0
DWIDTH 7 0
BBX 4 14 1 -3
BITMAP
90
00
00
90
90
90
90
90
90
90
90
10
10
20
ENDCHAR
STARTCHAR Jcircumflex
ENCODING 308
SWIDTH 500 0
DWIDTH 8 0
BBX 7 13 0 0
BITMAP
0C
12
00
1C
04
04
04
04
04
04
84
84
78
ENDCHAR
STARTCHAR jcircumflex
ENCODING 309
SWIDTH 222 0
DWIDTH 3 0
BBX 4 14 0 -3
BITMAP
60
90
00
40
40
40
40
40
40
40
40
40
40
80
ENDCHAR
STARTCHAR Kcommaaccent
ENCODING 310
SWIDTH 666 0
DWIDTH 10 0
BBX 9 14 1 -4
BITMAP
8100
8200
8400
8800
B000
C800
8400
8200
8100
8080
0000
0800
0800
1000
ENDCHAR
STARTCHAR kcommaaccent
ENCODING 311
SWIDTH 500 0
DWIDTH 8 0
BBX 6 15 1 -4
BITMAP
80
80
80
88
90
A0
C0
A0
90
88
84
00
10
10
20
ENDCHAR
STARTCHAR kgreenlandic
ENCODING 312
SWIDTH 500 0
DWIDTH 8 0
BBX 7 8 1 0
BITMAP
84
88
90
A0
D0
88
84
82
ENDCHAR
STARTCHAR Lacute
ENCODING 313
SWIDTH 556 0
DWIDTH 8 0
BBX 6 13 1 0
BITMAP
30
40
00
80
80
80
80
80
80
80
80
80
FC
ENDCHAR
STARTCHAR lacute
ENCODING 314
SWIDTH 222 0
DWIDTH 3 0
BBX 3 14 1 0
BITMAP
60
80
00
80
80
80
80
80
80
80
80
80
80
80
ENDCHAR
STARTCHAR Lcommaaccent
ENCODING 315
SWIDTH 556 0
DWIDTH 8 0
BBX 6 14 1 -4
BITMAP
80
80
80
80
80
80
80
80
80
FC
00
10
10
20
ENDCHAR
STARTCHAR lcommaaccent
ENCODING 316
SWIDTH 222 0
DWIDTH 3 0
BBX 2 15 0 -4
BITMAP
40
40
40
40
40
40
40
40
40
40
40
00
40
40
80
ENDCHAR
STARTCHAR Lcaron
ENCODING 317
SWIDTH 556 0
DWIDTH 8 0
BBX 6 10 1 0
BITMAP
88
88
88
80
80
80
80
80
80
FC
ENDCHAR
STARTCHAR lcaron
ENCODING 318
SWIDTH 291 0
DWIDTH 4 0
BBX 3 11 1 0
BITMAP
A0
A0
A0
80
80
80
80
80
80
80
80
ENDCHAR
STARTCHAR Ldot
ENCODING 319
SWIDTH 556 0
DWIDTH 8 0
BBX 6 10 1 0
BITMAP
80
80
80
80
90
80
80
80
80
FC
ENDCHAR
STARTCHAR ldot
ENCODING 320
SWIDTH 333 0
DWIDTH 5 0
BBX 4 11 1 0
BITMAP
80
80
80
80
80
90
80
80
80
80
80
ENDCHAR
STARTCHAR Lslash
ENCODING 321
SWIDTH 556 0
DWIDTH 8 0
BBX 7 10 0 0
BITMAP
40
40
40
50
60
40
C0
40
40
7E
ENDCHAR
STARTCHAR lslash
ENCODING 322
SWIDTH 222 0
DWIDTH 3 0
BBX 3 11 0 0
BITMAP
40
40
40
40
60
40
C0
40
40
40
40
ENDCHAR
STARTCHAR Nacute
ENCODING 323
SWIDTH 722 0
DWIDTH 11 0
BBX 8 13 1 0
BITMAP
0C
10
00
81
C1
A1
A1
91
89
85
85
83
81
ENDCHAR
STARTCHAR nacute
ENCODING 324
SWIDTH 556 0
DWIDTH 8 0
BBX 6 11 1 0
BITMAP
18
20
00
B8
C4
84
84
84
84
84
84
ENDCHAR
STARTCHAR Ncommaaccent
ENCODING 325
SWIDTH 722 0
DWIDTH 11 0
BBX 8 14 1 -4
BITMAP
81
C1
A1
A1
91
89
85
85
83
81
00
08
08
10
ENDCHAR
STARTCHAR ncommaaccent
ENCODING 326
SWIDTH 556 0
DWIDTH 8 0
BBX 6 12 1 -4
BITMAP
B8
C4
84
84
84
84
84
84
00
10
10
20
ENDCHAR
STARTCHAR Ncaron
ENCODING 327
SWIDTH 722 0
DWIDTH 11 0
BBX 8 13 1 0
BITMAP
24
18
00
81
C1
A1
A1
91
89
85
85
83
81
ENDCHAR
STARTCHAR ncaron
ENCODING 328
SWIDTH 556 0
DWIDTH 8 0
BBX 6 11 1 0
BITMAP
48
30
00
B8
C4
84
84
84
84
84
84
ENDCHAR
STARTCHAR napostrophe
ENCODING 329
SWIDTH 604 0
DWIDTH 9 0
BBX 9 10 -1 0
BITMAP
4000
4000
5700
9880
1080
1080
1080
1080
1080
1080
ENDCHAR
STARTCHAR Eng
ENCODING 330
SWIDTH 723 0
DWIDTH 11 0
BBX 9 10 1 0
BITMAP
9E00
A100
C080
8080
8080
8080
8080
8080
8880
8700
ENDCHAR
STARTCHAR eng
ENCODING 331
SWIDTH 556 0
DWIDTH 8 0
BBX 6 11 1 -3
BITMAP
B8
C4
84
84
84
84
84
84
04
04
18
ENDCHAR
STARTCHAR Omacron
ENCODING 332
SWIDTH 777 0
DWIDTH 12 0
BBX 10 12 1 0
BITMAP
1F00
0000
1E00
6180
4080
8040
8040
8040
8040
4080
6180
1E00
ENDCHAR
STARTCHAR omacron
ENCODING 333
SWIDTH 556 0
DWIDTH 8 0
BBX 6 10 1 0
BITMAP
7C
00
78
84
84
84
84
84
84
78
ENDCHAR
STARTCHAR Obreve
ENCODING 334
SWIDTH 777 0
DWIDTH 12 0
BBX 10 13 1 0
BITMAP
1100
0E00
0000
1E00
6180
4080
8040
8040
8040
8040
4080
6180
1E00
ENDCHAR
STARTCHAR obreve
ENCODING 335
SWIDTH 556 0
DWIDTH 8 0
BBX 6 11 1 0
BITMAP
44
38
00
78
84
84
84
84
84
84
78
ENDCHAR
STARTCHAR Ohungarumlaut
ENCODING 336
SWIDTH 777 0
DWIDTH 12 0
BBX 10 13 1 0
BITMAP
0D80
1200
0000
1E00
6180
4080
8040
8040
8040
8040
4080
6180
1E00
ENDCHAR
STARTCHAR ohungarumlaut
ENCODING 337
SWIDTH 556 0
DWIDTH 8 0
BBX 7 11 1 0
BITMAP
36
48
00
78
84
84
84
84
84
84
78
ENDCHAR
STARTCHAR OE
ENCODING 338
SWIDTH 1000 0
DWIDTH 15 0
BBX 13 10 1 0
BITMAP
1FF8
6200
4200
8200
83F0
8200
8200
4200
6200
3FF8
ENDCHAR
STARTCHAR oe
ENCODING 339
SWIDTH 943 0
DWIDTH 14 0
BBX 12 8 1 0
BITMAP
7BE0
C420
8410
87F0
8400
8400
8410
7BE0
ENDCHAR
STARTCHAR Racute
ENCODING 340
SWIDTH 722 0
DWIDTH 11 0
BBX 9 13 1 0
BITMAP
0C00
1000
0000
FF00
8080
8080
8080
FF00
8800
8400
8200
8100
8080
ENDCHAR
STARTCHAR racute
ENCODING 341
SWIDTH 333 0
DWIDTH 5 0
BBX 4 11 1 0
BITMAP
30
40
00
B0
C0
80
80
80
80
80
80
ENDCHAR
STARTCHAR Rcommaaccent
ENCODING 342
SWIDTH 722 0
DWIDTH 11 0
BBX 9 14 1 -4
BITMAP
FF00
8080
8080
8080
FF00
8800
8400
8200
8100
8080
0000
0800
0800
1000
ENDCHAR
STARTCHAR rcommaaccent
ENCODING 343
SWIDTH 333 0
DWIDTH 5 0
BBX 4 12 1 -4
BITMAP
B0
C0
80
80
80
80
80
80
00
40
40
80
ENDCHAR
STARTCHAR Rcaron
ENCODING 344
SWIDTH 722 0
DWIDTH 11 0
BBX 9 13 1 0
BITMAP
2400
1800
0000
FF00
8080
8080
8080
FF00
8800
8400
8200
8100
8080
ENDCHAR
STARTCHAR rcaron
ENCODING 345
SWIDTH 333 0
DWIDTH 5 0
BBX 4 11 1 0
BITMAP
90
60
00
B0
C0
80
80
80
80
80
80
ENDCHAR
STARTCHAR Sacute
ENCODING 346
SWIDTH 666 0
DWIDTH 10 0
BBX 8 13 1 0
BITMAP
0C
10
00
7E
81
80
80
70
0E
01
01
81
7E
ENDCHAR
STARTCHAR sacute
ENCODING 347
SWIDTH 500 0
DWIDTH 8 0
BBX 6 11 1 0
BITMAP
18
20
00
78
84
80
70
0C
04
84
78
ENDCHAR
STARTCHAR Scircumflex
ENCODING 348
SWIDTH 666 0
DWIDTH 10 0
BBX 8 13 1 0
BITMAP
18
24
00
7E
81
80
80
70
0E
01
01
81
7E
ENDCHAR
STARTCHAR scircumflex
ENCODING 349
SWIDTH 500 0
DWIDTH 8 0
BBX 6 11 1 0
BITMAP
30
48
00
78
84
80
70
0C
04
84
78
ENDCHAR
STARTCHAR Scedilla
ENCODING 350
SWIDTH 666 0
DWIDTH 10 0
BBX 8 14 1 -4
BITMAP
7E
81
80
80
70
0E
01
01
81
7E
10
18
04
18
ENDCHAR
STARTCHAR scedilla
ENCODING 351
SWIDTH 500 0
DWIDTH 8 0
BBX 6 12 1 -4
BITMAP
78
84
80
70
0C
04
84
78
20
30
08
30
ENDCHAR
STARTCHAR Scaron
ENCODING 352
SWIDTH 666 0
DWIDTH 10 0
BBX 8 13 1 0
BITMAP
24
18
00
7E
81
80
80
70
0E
01
01
81
7E
ENDCHAR
STARTCHAR scaron
ENCODING 353
SWIDTH 500 0
DWIDTH 8 0
BBX 6 11 1 0
BITMAP
48
30
00
78
84
80
70
0C
04
84
78
ENDCHAR
STARTCHAR Tcommaaccent
ENCODING 354
SWIDTH 610 0
DWIDTH 9 0
BBX 9 14 0 -4
BITMAP
FF80
0800
0800
0800
0800
0800
0800
0800
0800
0800
0000
0800
0800
1000
ENDCHAR
STARTCHAR tcommaaccent
ENCODING 355
SWIDTH 277 0
DWIDTH 4 0
BBX 4 14 0 -4
BITMAP
40
40
F0
40
40
40
40
40
40
30
00
20
20
40
ENDCHAR
STARTCHAR Tcaron
ENCODING 356
SWIDTH 610 0
DWIDTH 9 0
BBX 9 13 0 0
BITMAP
1200
0C00
0000
FF80
0800
0800
0800
0800
0800
0800
0800
0800
0800
ENDCHAR
STARTCHAR tcaron
ENCODING 357
SWIDTH 375 0
DWIDTH 6 0
BBX 6 11 0 0
BITMAP
04
44
44
F0
40
40
40
40
40
40
30
ENDCHAR
STARTCHAR Tbar
ENCODING 358
SWIDTH 610 0
DWIDTH 9 0
BBX 9 10 0 0
BITMAP
FF80
0800
0800
0800
3E00
0800
0800
0800
0800
0800
ENDCHAR
STARTCHAR tbar
ENCODING 359
SWIDTH 277 0
DWIDTH 4 0
BBX 4 10 0 0
BITMAP
40
40
F0
40
40
F0
40
40
40
30
ENDCHAR
STARTCHAR Utilde
ENCODING 360
SWIDTH 722 0
DWIDTH 11 0
BBX 8 13 1 0
BITMAP
1A
24
00
81
81
81
81
81
81
81
81
42
3C
ENDCHAR
STARTCHAR utilde
ENCODING 361
SWIDTH 556 0
DWIDTH 8 0
BBX 6 11 1 0
BITMAP
28
50
00
84
84
84
84
84
84
8C
74
ENDCHAR
STARTCHAR Umacron
ENCODING 362
SWIDTH 722 0
DWIDTH 11 0
BBX 8 12 1 0
BITMAP
3E
00
81
81
81
81
81
81
81
81
42
3C
ENDCHAR
STARTCHAR umacron
ENCODING 363
SWIDTH 556 0
DWIDTH 8 0
BBX 6 10 1 0
BITMAP
7C
00
84
84
84
84
84
84
8C
74
ENDCHAR
STARTCHAR Ubreve
ENCODING 364
SWIDTH 722 0
DWIDTH 11 0
BBX 8 13 1 0
BITMAP
22
1C
00
81
81
81
81
81
81
81
81
42
3C
ENDCHAR
STARTCHAR ubreve
ENCODING 365
SWIDTH 556 0
DWIDTH 8 0
BBX 6 11 1 0
BITMAP
44
38
00
84
84
84
84
84
84
8C
74
ENDCHAR
STARTCHAR Uring
ENCODING 366
SWIDTH 722 0
DWIDTH 11 0
BBX 8 15 1 0
BITMAP
18
24
24
18
00
81
81
81
81
81
81
81
81
42
3C
ENDCHAR
STARTCHAR uring
ENCODING 367
SWIDTH 556 0
DWIDTH 8 0
BBX 6 13 1 0
BITMAP
30
48
48
30
00
84
84
84
84
84
84
8C
74
ENDCHAR
STARTCHAR Uhungarumlaut
ENCODING 368
SWIDTH 722 0
DWIDTH 11 0
BBX 8 13 1 0
BITMAP
1B
24
00
81
81
81
81
81
81
81
81
42
3C
ENDCHAR
STARTCHAR uhungarumlaut
ENCODING 369
SWIDTH 556 0
DWIDTH 8 0
BBX 7 11 1 0
BITMAP
36
48
00
84
84
84
84
84
84
8C
74
ENDCHAR
STARTCHAR Uogonek
ENCODING 370
SWIDTH 722 0
DWIDTH 11 0
BBX 8 14 1 -4
BITMAP
81
81
81
81
81
81
81
81
42
3C
08
10
10
0C
ENDCHAR
STARTCHAR uogonek
ENCODING 371
SWIDTH 556 0
DWIDTH 8 0
BBX 7 12 1 -4
BITMAP
84
84
84
84
84
84
8C
74
04
08
08
06
ENDCHAR
STARTCHAR Wcircumflex
ENCODING 372
SWIDTH 943 0
DWIDTH 14 0
BBX 13 13 1 0
BITMAP
0300
0480
0000
8208
8208
4510
4510
4510
28A0
28A0
28A0
30C0
1040
ENDCHAR
STARTCHAR wcircumflex
ENCODING 373
SWIDTH 722 0
DWIDTH 11 0
BBX 9 11 1 0
BITMAP
0C00
1200
0000
8880
8880
9480
5500
5500
5500
2200
2200
ENDCHAR
STARTCHAR Ycircumflex
ENCODING 374
SWIDTH 666 0
DWIDTH 10 0
BBX 7 13 1 0
BITMAP
18
24
00
82
44
44
28
28
10
10
10
10
10
ENDCHAR
STARTCHAR ycircumflex
ENCODING 375
SWIDTH 500 0
DWIDTH 8 0
BBX 7 14 0 -3
BITMAP
18
24
00
82
82
44
44
48
28
28
10
10
20
C0
ENDCHAR
STARTCHAR Ydieresis
ENCODING 376
SWIDTH 666 0
DWIDTH 10 0
BBX 7 12 1 0
BITMAP
24
00
82
44
44
28
28
10
10
10
10
10
ENDCHAR
STARTCHAR Zacute
ENCODING 377
SWIDTH 610 0
DWIDTH 9 0
BBX 6 13 1 0
BITMAP
18
20
00
FC
04
08
10
10
20
20
40
80
FC
ENDCHAR
STARTCHAR zacute
ENCODING 378
SWIDTH 500 0
DWIDTH 8 0
BBX 6 11 1 0
BITMAP
0C
10
00
FC
04
08
10
20
40
80
FC
ENDCHAR
STARTCHAR Zdotaccent
ENCODING 379
SWIDTH 610 0
DWIDTH 9 0
BBX 6 12 1 0
BITMAP
10
00
FC
04
08
10
10
20
20
40
80
FC
ENDCHAR
STARTCHAR zdotaccent
ENCODING 380
SWIDTH 500 0
DWIDTH 8 0
BBX 6 10 1 0
BITMAP
10
00
FC
04
08
10
20
40
80
FC
ENDCHAR
STARTCHAR Zcaron
ENCODING 381
SWIDTH 610 0
DWIDTH 9 0
BBX 6 13 1 0
BITMAP
24
18
00
FC
04
08
10
10
20
20
40
80
FC
ENDCHAR
STARTCHAR zcaron
ENCODING 382
SWIDTH 500 0
DWIDTH 8 0
BBX 6 11 1 0
BITMAP
48
30
00
FC
04
08
10
20
40
80
FC
ENDCHAR
STARTCHAR longs
ENCODING 383
SWIDTH 222 0
DWIDTH 3 0
BBX 3 11 1 0
BITMAP
60
80
80
80
80
80
80
80
80
80
80
ENDCHAR
STARTCHAR florin
ENCODING 402
SWIDTH 556 0
DWIDTH 8 0
BBX 6 14 1 -3
BITMAP
1C
20
20
78
20
20
20
40
40
40
40
80
80
80
ENDCHAR
STARTCHAR Aringacute
ENCODING 506
SWIDTH 666 0
DWIDTH 10 0
BBX 9 14 0 0
BITMAP
0600
0800
0800
1400
1400
0800
1400
1400
2200
2200
3E00
4100
4100
8080
ENDCHAR
STARTCHAR aringacute
ENCODING 507
SWIDTH 556 0
DWIDTH 8 0
BBX 7 14 1 0
BITMAP
18
20
00
30
48
48
78
84
04
7C
C4
84
8C
72
ENDCHAR
STARTCHAR AEacute
ENCODING 508
SWIDTH 1000 0
DWIDTH 15 0
BBX 14 13 0 0
BITMAP
0060
0080
0000
03FC
0500
0900
0900
11F8
1100
3F00
4100
4100
81FC
ENDCHAR
STARTCHAR aeacute
ENCODING 509
SWIDTH 889 0
DWIDTH 13 0
BBX 11 11 1 0
BITMAP
0300
0400
0000
7BC0
8420
0420
7FE0
8400
8400
8C20
73C0
ENDCHAR
STARTCHAR Oslashacute
ENCODING 510
SWIDTH 777 0
DWIDTH 12 0
BBX 10 13 1 0
BITMAP
0600
0800
0000
1E40
6180
4180
8240
8440
8840
9040
6080
6180
9E00
ENDCHAR
STARTCHAR oslashacute
ENCODING 511
SWIDTH 610 0
DWIDTH 9 0
BBX 6 11 1 0
BITMAP
18
20
00
7C
84
8C
94
A4
C4
84
F8
ENDCHAR
STARTCHAR circumflex
ENCODING 710
SWIDTH 333 0
DWIDTH 5 0
BBX 4 2 0 9
BITMAP
60
90
ENDCHAR
STARTCHAR caron
ENCODING 711
SWIDTH 333 0
DWIDTH 5 0
BBX 4 2 0 9
BITMAP
90
60
ENDCHAR
STARTCHAR uni02C9
ENCODING 713
SWIDTH 333 0
DWIDTH 5 0
BBX 5 1 0 10
BITMAP
F8
ENDCHAR
STARTCHAR breve
ENCODING 728
SWIDTH 333 0
DWIDTH 5 0
BBX 5 2 0 9
BITMAP
88
70
ENDCHAR
STARTCHAR dotaccent
ENCODING 729
SWIDTH 333 0
DWIDTH 5 0
BBX 1 1 2 10
BITMAP
80
ENDCHAR
STARTCHAR ring
ENCODING 730
SWIDTH 333 0
DWIDTH 5 0
BBX 4 4 0 9
BITMAP
60
90
90
60
ENDCHAR
STARTCHAR ogonek
ENCODING 731
SWIDTH 333 0
DWIDTH 5 0
BBX 3 4 1 -4
BITMAP
40
80
80
60
ENDCHAR
STARTCHAR tilde
ENCODING 732
SWIDTH 333 0
DWIDTH 5 0
BBX 4 2 0 9
BITMAP
50
A0
ENDCHAR
STARTCHAR hungarumlaut
ENCODING 733
SWIDTH 333 0
DWIDTH 5 0
BBX 6 2 0 9
BITMAP
6C
90
ENDCHAR
STARTCHAR semicolon.dup3
ENCODING 894
SWIDTH 277 0
DWIDTH 4 0
BBX 2 10 1 -2
BITMAP
40
40
00
00
00
00
40
40
40
80
ENDCHAR
STARTCHAR tonos
ENCODING 900
SWIDTH 333 0
DWIDTH 5 0
BBX 2 2 2 8
BITMAP
40
80
ENDCHAR
STARTCHAR dieresistonos
ENCODING 901
SWIDTH 333 0
DWIDTH 5 0
BBX 5 3 0 9
BITMAP
10
20
A8
ENDCHAR
STARTCHAR Alphatonos
ENCODING 902
SWIDTH 667 0
DWIDTH 10 0
BBX 9 10 0 0
BITMAP
2800
5400
1400
1400
2200
2200
7F00
4100
4100
8080
ENDCHAR
STARTCHAR anoteleia
ENCODING 903
SWIDTH 277 0
DWIDTH 4 0
BBX 1 2 1 3
BITMAP
80
80
ENDCHAR
STARTCHAR Epsilontonos
ENCODING 904
SWIDTH 784 0
DWIDTH 12 0
BBX 11 10 0 0
BITMAP
5FE0
9000
1000
1000
1FC0
1000
1000
1000
1000
1FE0
ENDCHAR
STARTCHAR Etatonos
ENCODING 905
SWIDTH 837 0
DWIDTH 13 0
BBX 11 10 1 0
BITMAP
5020
9020
1020
1020
1FE0
1020
1020
1020
1020
1020
ENDCHAR
STARTCHAR Iotatonos
ENCODING 906
SWIDTH 383 0
DWIDTH 6 0
BBX 4 10 1 0
BITMAP
50
90
10
10
10
10
10
10
10
10
ENDCHAR
STARTCHAR Omicrontonos
ENCODING 908
SWIDTH 774 0
DWIDTH 12 0
BBX 11 10 0 0
BITMAP
4F00
B0C0
2040
4020
4020
4020
4020
2040
30C0
0F00
ENDCHAR
STARTCHAR Upsilontonos
ENCODING 910
SWIDTH 855 0
DWIDTH 13 0
BBX 10 10 1 0
BITMAP
5040
8880
0880
0500
0500
0200
0200
0200
0200
0200
ENDCHAR
STARTCHAR Omegatonos
ENCODING 911
SWIDTH 752 0
DWIDTH 11 0
BBX 10 10 0 0
BITMAP
5F00
A080
4080
4040
4040
4040
4040
2080
1100
71C0
ENDCHAR
STARTCHAR iotadieresistonos
ENCODING 912
SWIDTH 222 0
DWIDTH 3 0
BBX 5 12 -1 0
BITMAP
10
20
A8
00
20
20
20
20
20
20
20
20
ENDCHAR
STARTCHAR Alpha
ENCODING 913
SWIDTH 666 0
DWIDTH 10 0
BBX 9 10 0 0
BITMAP
0800
1400
1400
1400
2200
2200
7F00
4100
4100
8080
ENDCHAR
STARTCHAR Beta
ENCODING 914
SWIDTH 666 0
DWIDTH 10 0
BBX 8 10 1 0
BITMAP
FE
81
81
81
FE
83
81
81
81
FE
ENDCHAR
STARTCHAR Gamma
ENCODING 915
SWIDTH 550 0
DWIDTH 8 0
BBX 6 10 1 0
BITMAP
FC
80
80
80
80
80
80
80
80
80
ENDCHAR
STARTCHAR uni0394
ENCODING 916
SWIDTH 667 0
DWIDTH 10 0
BBX 10 10 0 0
BITMAP
0C00
0C00
1200
1200
2100
2100
4080
4080
8040
FFC0
ENDCHAR
STARTCHAR Epsilon
ENCODING 917
SWIDTH 666 0
DWIDTH 10 0
BBX 8 10 1 0
BITMAP
FF
80
80
80
FE
80
80
80
80
FF
ENDCHAR
STARTCHAR Zeta
ENCODING 918
SWIDTH 610 0
DWIDTH 9 0
BBX 6 10 1 0
BITMAP
FC
04
08
10
10
20
20
40
80
FC
ENDCHAR
STARTCHAR Eta
ENCODING 919
SWIDTH 722 0
DWIDTH 11 0
BBX 8 10 1 0
BITMAP
81
81
81
81
FF
81
81
81
81
81
ENDCHAR
STARTCHAR Theta
ENCODING 920
SWIDTH 777 0
DWIDTH 12 0
BBX 10 10 1 0
BITMAP
1E00
6180
4080
8040
9E40
8040
8040
4080
6180
1E00
ENDCHAR
STARTCHAR Iota
ENCODING 921
SWIDTH 277 0
DWIDTH 4 0
BBX 1 10 1 0
BITMAP
80
80
80
80
80
80
80
80
80
80
ENDCHAR
STARTCHAR Kappa
ENCODING 922
SWIDTH 666 0
DWIDTH 10 0
BBX 9 10 1 0
BITMAP
8100
8200
8400
8800
B000
C800
8400
8200
8100
8080
ENDCHAR
STARTCHAR Lambda
ENCODING 923
SWIDTH 667 0
DWIDTH 10 0
BBX 11 10 0 0
BITMAP
0400
0A00
0A00
1100
1100
2080
2080
4040
4040
8020
ENDCHAR
STARTCHAR Mu
ENCODING 924
SWIDTH 833 0
DWIDTH 12 0
BBX 9 10 1 0
BITMAP
8080
C180
C180
A280
A280
A280
9480
9480
8880
8880
ENDCHAR
STARTCHAR Nu
ENCODING 925
SWIDTH 722 0
DWIDTH 11 0
BBX 8 10 1 0
BITMAP
81
C1
A1
A1
91
89
85
85
83
81
ENDCHAR
STARTCHAR Xi
ENCODING 926
SWIDTH 649 0
DWIDTH 10 0
BBX 8 10 1 0
BITMAP
FF
00
00
00
7E
00
00
00
00
FF
ENDCHAR
STARTCHAR Omicron
ENCODING 927
SWIDTH 777 0
DWIDTH 12 0
BBX 10 10 1 0
BITMAP
1E00
6180
4080
8040
8040
8040
8040
4080
6180
1E00
ENDCHAR
STARTCHAR Pi
ENCODING 928
SWIDTH 722 0
DWIDTH 11 0
BBX 8 10 1 0
BITMAP
FF
81
81
81
81
81
81
81
81
81
ENDCHAR
STARTCHAR Rho
ENCODING 929
SWIDTH 666 0
DWIDTH 10 0
BBX 8 10 1 0
BITMAP
FE
83
81
81
FE
80
80
80
80
80
ENDCHAR
STARTCHAR Sigma
ENCODING 931
SWIDTH 618 0
DWIDTH 9 0
BBX 7 10 1 0
BITMAP
FE
40
20
10
08
10
20
40
80
FE
ENDCHAR
STARTCHAR Tau
ENCODING 932
SWIDTH 610 0
DWIDTH 9 0
BBX 9 10 0 0
BITMAP
FF80
0800
0800
0800
0800
0800
0800
0800
0800
0800
ENDCHAR
STARTCHAR Upsilon
ENCODING 933
SWIDTH 666 0
DWIDTH 10 0
BBX 7 10 1 0
BITMAP
82
44
44
28
28
10
10
10
10
10
ENDCHAR
STARTCHAR Phi
ENCODING 934
SWIDTH 797 0
DWIDTH 12 0
BBX 9 10 1 0
BITMAP
0800
3E00
4900
8880
8880
8880
4900
3E00
0800
0800
ENDCHAR
STARTCHAR Chi
ENCODING 935
SWIDTH 666 0
DWIDTH 10 0
BBX 9 10 0 0
BITMAP
8080
4100
2200
1400
0800
0800
1400
2200
4100
8080
ENDCHAR
STARTCHAR Psi
ENCODING 936
SWIDTH 835 0
DWIDTH 13 0
BBX 9 10 1 0
BITMAP
8880
8880
8880
8880
8880
4900
3E00
0800
0800
0800
ENDCHAR
STARTCHAR uni03A9
ENCODING 937
SWIDTH 747 0
DWIDTH 11 0
BBX 9 10 1 0
BITMAP
3E00
4100
8100
8080
8080
8080
8080
4100
2200
E380
ENDCHAR
STARTCHAR Iotadieresis
ENCODING 938
SWIDTH 277 0
DWIDTH 4 0
BBX 4 12 0 0
BITMAP
90
00
40
40
40
40
40
40
40
40
40
40
ENDCHAR
STARTCHAR Upsilondieresis
ENCODING 939
SWIDTH 666 0
DWIDTH 10 0
BBX 7 12 1 0
BITMAP
24
00
82
44
44
28
28
10
10
10
10
10
ENDCHAR
STARTCHAR alphatonos
ENCODING 940
SWIDTH 578 0
DWIDTH 9 0
BBX 7 11 1 0
BITMAP
08
10
00
72
8C
84
84
84
84
8C
72
ENDCHAR
STARTCHAR epsilontonos
ENCODING 941
SWIDTH 445 0
DWIDTH 7 0
BBX 5 11 1 0
BITMAP
10
20
00
70
88
80
70
C0
80
88
70
ENDCHAR
STARTCHAR etatonos
ENCODING 942
SWIDTH 556 0
DWIDTH 8 0
BBX 6 14 1 -3
BITMAP
08
10
00
B8
C4
84
84
84
84
84
84
04
04
04
ENDCHAR
STARTCHAR iotatonos
ENCODING 943
SWIDTH 222 0
DWIDTH 3 0
BBX 2 11 1 0
BITMAP
40
80
00
80
80
80
80
80
80
80
80
ENDCHAR
STARTCHAR upsilondieresistonos
ENCODING 944
SWIDTH 546 0
DWIDTH 8 0
BBX 6 12 1 0
BITMAP
08
10
54
00
88
84
84
84
84
84
88
78
ENDCHAR
STARTCHAR alpha
ENCODING 945
SWIDTH 578 0
DWIDTH 9 0
BBX 7 8 1 0
BITMAP
72
8C
84
84
84
84
8C
72
ENDCHAR
STARTCHAR beta
ENCODING 946
SWIDTH 575 0
DWIDTH 9 0
BBX 7 14 1 -3
BITMAP
78
84
84
84
88
98
84
82
82
84
F8
80
80
80
ENDCHAR
STARTCHAR gamma
ENCODING 947
SWIDTH 500 0
DWIDTH 8 0
BBX 7 11 0 -3
BITMAP
82
82
44
44
44
28
28
10
10
10
10
ENDCHAR
STARTCHAR delta
ENCODING 948
SWIDTH 556 0
DWIDTH 8 0
BBX 6 11 1 0
BITMAP
78
20
10
28
44
84
84
84
84
84
78
ENDCHAR
STARTCHAR epsilon
ENCODING 949
SWIDTH 445 0
DWIDTH 7 0
BBX 5 8 1 0
BITMAP
70
88
80
70
C0
80
88
70
ENDCHAR
STARTCHAR zeta
ENCODING 950
SWIDTH 440 0
DWIDTH 7 0
BBX 5 14 1 -3
BITMAP
78
08
10
20
40
80
80
80
80
80
70
08
08
08
ENDCHAR
STARTCHAR eta
ENCODING 951
SWIDTH 556 0
DWIDTH 8 0
BBX 6 11 1 -3
BITMAP
B8
C4
84
84
84
84
84
84
04
04
04
ENDCHAR
STARTCHAR theta
ENCODING 952
SWIDTH 556 0
DWIDTH 8 0
BBX 6 11 1 0
BITMAP
78
84
84
84
84
FC
84
84
84
88
78
ENDCHAR
STARTCHAR iota
ENCODING 953
SWIDTH 222 0
DWIDTH 3 0
BBX 1 8 1 0
BITMAP
80
80
80
80
80
80
80
80
ENDCHAR
STARTCHAR kappa
ENCODING 954
SWIDTH 500 0
DWIDTH 8 0
BBX 7 8 1 0
BITMAP
84
88
90
A0
D0
88
84
82
ENDCHAR
STARTCHAR lambda
ENCODING 955
SWIDTH 500 0
DWIDTH 8 0
BBX 7 11 0 0
BITMAP
60
10
10
10
28
28
28
44
44
82
82
ENDCHAR
STARTCHAR uni03BC
ENCODING 956
SWIDTH 576 0
DWIDTH 9 0
BBX 6 11 1 -3
BITMAP
84
84
84
84
84
84
CC
B4
80
80
80
ENDCHAR
STARTCHAR nu
ENCODING 957
SWIDTH 500 0
DWIDTH 8 0
BBX 6 8 0 0
BITMAP
80
84
44
44
44
28
28
10
ENDCHAR
STARTCHAR xi
ENCODING 958
SWIDTH 447 0
DWIDTH 7 0
BBX 5 14 1 -3
BITMAP
78
20
40
40
40
30
60
80
80
80
60
18
08
08
ENDCHAR
STARTCHAR omicron
ENCODING 959
SWIDTH 556 0
DWIDTH 8 0
BBX 6 8 1 0
BITMAP
78
84
84
84
84
84
84
78
ENDCHAR
STARTCHAR pi
ENCODING 960
SWIDTH 689 0
DWIDTH 10 0
BBX 7 8 1 0
BITMAP
FE
44
44
44
44
44
44
82
ENDCHAR
STARTCHAR rho
ENCODING 961
SWIDTH 568 0
DWIDTH 9 0
BBX 6 11 1 -3
BITMAP
30
4C
84
84
84
84
C8
B8
80
80
80
ENDCHAR
STARTCHAR sigma1
ENCODING 962
SWIDTH 481 0
DWIDTH 7 0
BBX 5 11 1 -3
BITMAP
38
C0
80
80
80
80
80
70
18
08
08
ENDCHAR
STARTCHAR sigma
ENCODING 963
SWIDTH 617 0
DWIDTH 9 0
BBX 8 8 1 0
BITMAP
7F
88
84
84
84
84
84
78
ENDCHAR
STARTCHAR tau
ENCODING 964
SWIDTH 395 0
DWIDTH 6 0
BBX 5 8 0 0
BITMAP
F8
20
20
20
20
20
20
10
ENDCHAR
STARTCHAR upsilon
ENCODING 965
SWIDTH 546 0
DWIDTH 8 0
BBX 6 8 1 0
BITMAP
88
84
84
84
84
84
88
78
ENDCHAR
STARTCHAR phi
ENCODING 966
SWIDTH 648 0
DWIDTH 10 0
BBX 9 11 0 -3
BITMAP
2600
4900
8880
8880
8880
8880
4900
3E00
0800
0800
0800
ENDCHAR
STARTCHAR chi
ENCODING 967
SWIDTH 524 0
DWIDTH 8 0
BBX 8 11 0 -3
BITMAP
C1
22
24
14
18
18
24
24
42
81
81
ENDCHAR
STARTCHAR psi
ENCODING 968
SWIDTH 712 0
DWIDTH 11 0
BBX 9 13 1 -3
BITMAP
0800
0800
8880
8880
8880
8880
8880
8880
4900
3E00
0800
0800
0800
ENDCHAR
STARTCHAR omega
ENCODING 969
SWIDTH 780 0
DWIDTH 12 0
BBX 9 8 1 0
BITMAP
2200
4100
8080
8880
8880
8880
9880
7700
ENDCHAR
STARTCHAR iotadieresis
ENCODING 970
SWIDTH 222 0
DWIDTH 3 0
BBX 3 10 0 0
BITMAP
A0
00
40
40
40
40
40
40
40
40
ENDCHAR
STARTCHAR upsilondieresis
ENCODING 971
SWIDTH 546 0
DWIDTH 8 0
BBX 6 10 1 0
BITMAP
28
00
88
84
84
84
84
84
88
78
ENDCHAR
STARTCHAR omicrontonos
ENCODING 972
SWIDTH 556 0
DWIDTH 8 0
BBX 6 11 1 0
BITMAP
08
10
00
78
84
84
84
84
84
84
78
ENDCHAR
STARTCHAR upsilontonos
ENCODING 973
SWIDTH 546 0
DWIDTH 8 0
BBX 6 11 1 0
BITMAP
10
20
00
88
84
84
84
84
84
88
78
ENDCHAR
STARTCHAR omegatonos
ENCODING 974
SWIDTH 780 0
DWIDTH 12 0
BBX 9 11 1 0
BITMAP
0400
0800
0000
2200
4100
8080
8880
8880
8880
9880
7700
ENDCHAR
STARTCHAR afii10023
ENCODING 1025
SWIDTH 667 0
DWIDTH 10 0
BBX 8 12 1 0
BITMAP
24
00
FF
80
80
80
FE
80
80
80
80
FF
ENDCHAR
STARTCHAR afii10051
ENCODING 1026
SWIDTH 864 0
DWIDTH 13 0
BBX 11 10 0 0
BITMAP
FF80
0800
0800
0BC0
0C20
0820
0820
0820
0920
08C0
ENDCHAR
STARTCHAR afii10052
ENCODING 1027
SWIDTH 541 0
DWIDTH 8 0
BBX 6 13 1 0
BITMAP
18
20
00
FC
80
80
80
80
80
80
80
80
80
ENDCHAR
STARTCHAR afii10053
ENCODING 1028
SWIDTH 718 0
DWIDTH 11 0
BBX 9 10 1 0
BITMAP
1E00
6100
8080
8000
FC00
8000
8000
4080
6100
1E00
ENDCHAR
STARTCHAR afii10054
ENCODING 1029
SWIDTH 666 0
DWIDTH 10 0
BBX 8 10 1 0
BITMAP
7E
81
80
80
70
0E
01
01
81
7E
ENDCHAR
STARTCHAR afii10055
ENCODING 1030
SWIDTH 277 0
DWIDTH 4 0
BBX 1 10 1 0
BITMAP
80
80
80
80
80
80
80
80
80
80
ENDCHAR
STARTCHAR afii10056
ENCODING 1031
SWIDTH 277 0
DWIDTH 4 0
BBX 4 12 0 0
BITMAP
90
00
40
40
40
40
40
40
40
40
40
40
ENDCHAR
STARTCHAR afii10057
ENCODING 1032
SWIDTH 500 0
DWIDTH 8 0
BBX 6 10 0 0
BITMAP
1C
04
04
04
04
04
04
84
84
78
ENDCHAR
STARTCHAR afii10058
ENCODING 1033
SWIDTH 1057 0
DWIDTH 16 0
BBX 15 10 0 0
BITMAP
1F00
1100
1100
1100
21FC
2102
2102
2102
4102
81FC
ENDCHAR
STARTCHAR afii10059
ENCODING 1034
SWIDTH 1010 0
DWIDTH 15 0
BBX 13 10 1 0
BITMAP
8200
8200
8200
8200
FFF0
8208
8208
8208
8208
83F0
ENDCHAR
STARTCHAR afii10060
ENCODING 1035
SWIDTH 854 0
DWIDTH 13 0
BBX 11 10 0 0
BITMAP
FF80
0800
0800
0BC0
0C20
0820
0820
0820
0820
0820
ENDCHAR
STARTCHAR afii10061
ENCODING 1036
SWIDTH 582 0
DWIDTH 9 0
BBX 8 13 1 0
BITMAP
0C
10
00
82
84
88
90
E0
90
88
84
82
81
ENDCHAR
STARTCHAR afii10062
ENCODING 1038
SWIDTH 635 0
DWIDTH 10 0
BBX 9 13 1 0
BITMAP
2200
1C00
0000
8080
4100
4100
2200
1400
1400
0800
1000
1000
E000
ENDCHAR
STARTCHAR afii10145
ENCODING 1039
SWIDTH 718 0
DWIDTH 11 0
BBX 9 13 1 -3
BITMAP
8080
8080
8080
8080
8080
8080
8080
8080
8080
FF80
0800
0800
0800
ENDCHAR
STARTCHAR afii10017
ENCODING 1040
SWIDTH 666 0
DWIDTH 10 0
BBX 9 10 0 0
BITMAP
0800
1400
1400
1400
2200
2200
7F00
4100
4100
8080
ENDCHAR
STARTCHAR afii10018
ENCODING 1041
SWIDTH 656 0
DWIDTH 10 0
BBX 8 10 1 0
BITMAP
FE
80
80
80
FE
81
81
81
81
FE
ENDCHAR
STARTCHAR afii10019
ENCODING 1042
SWIDTH 666 0
DWIDTH 10 0
BBX 8 10 1 0
BITMAP
FE
81
81
81
FE
83
81
81
81
FE
ENDCHAR
STARTCHAR afii10020
ENCODING 1043
SWIDTH 541 0
DWIDTH 8 0
BBX 6 10 1 0
BITMAP
FC
80
80
80
80
80
80
80
80
80
ENDCHAR
STARTCHAR afii10021
ENCODING 1044
SWIDTH 677 0
DWIDTH 10 0
BBX 10 13 0 -3
BITMAP
1F80
1080
1080
1080
1080
2080
2080
2080
4080
FFC0
8040
8040
8040
ENDCHAR
STARTCHAR afii10022
ENCODING 1045
SWIDTH 666 0
DWIDTH 10 0
BBX 8 10 1 0
BITMAP
FF
80
80
80
FE
80
80
80
80
FF
ENDCHAR
STARTCHAR afii10024
ENCODING 1046
SWIDTH 923 0
DWIDTH 14 0
BBX 14 10 0 0
BITMAP
8204
4208
2210
1220
0FC0
1240
2220
2210
4208
8204
ENDCHAR
STARTCHAR afii10025
ENCODING 1047
SWIDTH 604 0
DWIDTH 9 0
BBX 7 10 1 0
BITMAP
7C
82
02
02
1C
02
02
02
82
7C
ENDCHAR
STARTCHAR afii10026
ENCODING 1048
SWIDTH 718 0
DWIDTH 11 0
BBX 9 10 1 0
BITMAP
8080
8180
8280
8480
8880
8880
9080
A080
C080
8080
ENDCHAR
STARTCHAR afii10027
ENCODING 1049
SWIDTH 718 0
DWIDTH 11 0
BBX 9 13 1 0
BITMAP
2200
1C00
0000
8080
8180
8280
8480
8880
8880
9080
A080
C080
8080
ENDCHAR
STARTCHAR afii10028
ENCODING 1050
SWIDTH 582 0
DWIDTH 9 0
BBX 8 10 1 0
BITMAP
82
84
88
90
E0
90
88
84
82
81
ENDCHAR
STARTCHAR afii10029
ENCODING 1051
SWIDTH 656 0
DWIDTH 10 0
BBX 8 10 0 0
BITMAP
1F
11
11
11
21
21
21
21
41
81
ENDCHAR
STARTCHAR afii10030
ENCODING 1052
SWIDTH 833 0
DWIDTH 12 0
BBX 9 10 1 0
BITMAP
8080
C180
C180
A280
A280
A280
9480
9480
8880
8880
ENDCHAR
STARTCHAR afii10031
ENCODING 1053
SWIDTH 722 0
DWIDTH 11 0
BBX 8 10 1 0
BITMAP
81
81
81
81
FF
81
81
81
81
81
ENDCHAR
STARTCHAR afii10032
ENCODING 1054
SWIDTH 777 0
DWIDTH 12 0
BBX 10 10 1 0
BITMAP
1E00
6180
4080
8040
8040
8040
8040
4080
6180
1E00
ENDCHAR
STARTCHAR afii10033
ENCODING 1055
SWIDTH 718 0
DWIDTH 11 0
BBX 8 10 1 0
BITMAP
FF
81
81
81
81
81
81
81
81
81
ENDCHAR
STARTCHAR afii10034
ENCODING 1056
SWIDTH 666 0
DWIDTH 10 0
BBX 8 10 1 0
BITMAP
FE
83
81
81
FE
80
80
80
80
80
ENDCHAR
STARTCHAR afii10035
ENCODING 1057
SWIDTH 722 0
DWIDTH 11 0
BBX 9 10 1 0
BITMAP
1E00
6100
4080
8000
8000
8000
8000
4080
6100
1E00
ENDCHAR
STARTCHAR afii10036
ENCODING 1058
SWIDTH 610 0
DWIDTH 9 0
BBX 9 10 0 0
BITMAP
FF80
0800
0800
0800
0800
0800
0800
0800
0800
0800
ENDCHAR
STARTCHAR afii10037
ENCODING 1059
SWIDTH 635 0
DWIDTH 10 0
BBX 9 10 1 0
BITMAP
8080
4100
4100
2200
1400
1400
0800
1000
1000
E000
ENDCHAR
STARTCHAR afii10038
ENCODING 1060
SWIDTH 760 0
DWIDTH 11 0
BBX 9 10 1 0
BITMAP
0800
3E00
4900
8880
8880
8880
4900
3E00
0800
0800
ENDCHAR
STARTCHAR afii10039
ENCODING 1061
SWIDTH 666 0
DWIDTH 10 0
BBX 9 10 0 0
BITMAP
8080
4100
2200
1400
0800
0800
1400
2200
4100
8080
ENDCHAR
STARTCHAR afii10040
ENCODING 1062
SWIDTH 739 0
DWIDTH 11 0
BBX 9 13 1 -3
BITMAP
8100
8100
8100
8100
8100
8100
8100
8100
8100
FF80
0080
0080
0080
ENDCHAR
STARTCHAR afii10041
ENCODING 1063
SWIDTH 666 0
DWIDTH 10 0
BBX 7 10 1 0
BITMAP
82
82
82
82
82
86
7A
02
02
02
ENDCHAR
STARTCHAR afii10042
ENCODING 1064
SWIDTH 916 0
DWIDTH 14 0
BBX 11 10 1 0
BITMAP
8420
8420
8420
8420
8420
8420
8420
8420
8420
FFE0
ENDCHAR
STARTCHAR afii10043
ENCODING 1065
SWIDTH 937 0
DWIDTH 14 0
BBX 12 13 1 -3
BITMAP
8420
8420
8420
8420
8420
8420
8420
8420
8420
FFF0
0010
0010
0010
ENDCHAR
STARTCHAR afii10044
ENCODING 1066
SWIDTH 791 0
DWIDTH 12 0
BBX 11 10 0 0
BITMAP
F800
0800
0800
0800
0FC0
0820
0820
0820
0820
0FC0
ENDCHAR
STARTCHAR afii10045
ENCODING 1067
SWIDTH 885 0
DWIDTH 13 0
BBX 11 10 1 0
BITMAP
8020
8020
8020
8020
FE20
8120
8120
8120
8120
FE20
ENDCHAR
STARTCHAR afii10046
ENCODING 1068
SWIDTH 656 0
DWIDTH 10 0
BBX 8 10 1 0
BITMAP
80
80
80
80
FE
81
81
81
81
FE
ENDCHAR
STARTCHAR afii10047
ENCODING 1069
SWIDTH 718 0
DWIDTH 11 0
BBX 9 10 1 0
BITMAP
3C00
4300
8100
0080
1F80
0080
0080
8100
4300
3C00
ENDCHAR
STARTCHAR afii10048
ENCODING 1070
SWIDTH 1010 0
DWIDTH 15 0
BBX 13 10 1 0
BITMAP
83C0
8C30
8810
9008
F008
9008
9008
8810
8C30
83C0
ENDCHAR
STARTCHAR afii10049
ENCODING 1071
SWIDTH 722 0
DWIDTH 11 0
BBX 9 10 1 0
BITMAP
7F80
8080
8080
8080
7F80
0880
1080
2080
4080
8080
ENDCHAR
STARTCHAR afii10065
ENCODING 1072
SWIDTH 556 0
DWIDTH 8 0
BBX 7 8 1 0
BITMAP
78
84
04
7C
C4
84
8C
72
ENDCHAR
STARTCHAR afii10066
ENCODING 1073
SWIDTH 572 0
DWIDTH 9 0
BBX 7 11 1 0
BITMAP
0E
30
C0
B8
C4
82
82
82
82
44
38
ENDCHAR
STARTCHAR afii10067
ENCODING 1074
SWIDTH 531 0
DWIDTH 8 0
BBX 6 8 1 0
BITMAP
F8
84
84
F8
8C
84
84
F8
ENDCHAR
STARTCHAR afii10068
ENCODING 1075
SWIDTH 364 0
DWIDTH 5 0
BBX 4 8 1 0
BITMAP
F0
80
80
80
80
80
80
80
ENDCHAR
STARTCHAR afii10069
ENCODING 1076
SWIDTH 583 0
DWIDTH 9 0
BBX 9 11 0 -3
BITMAP
3F00
2100
2100
2100
2100
4100
4100
FF80
8080
8080
8080
ENDCHAR
STARTCHAR afii10070
ENCODING 1077
SWIDTH 556 0
DWIDTH 8 0
BBX 6 8 1 0
BITMAP
78
84
84
FC
80
80
84
78
ENDCHAR
STARTCHAR afii10072
ENCODING 1078
SWIDTH 668 0
DWIDTH 10 0
BBX 9 8 0 0
BITMAP
8880
4900
2A00
3E00
2A00
4900
4900
8880
ENDCHAR
STARTCHAR afii10073
ENCODING 1079
SWIDTH 458 0
DWIDTH 7 0
BBX 5 8 1 0
BITMAP
70
88
08
30
08
08
88
70
ENDCHAR
STARTCHAR afii10074
ENCODING 1080
SWIDTH 558 0
DWIDTH 8 0
BBX 6 8 1 0
BITMAP
84
8C
94
94
A4
A4
C4
84
ENDCHAR
STARTCHAR afii10075
ENCODING 1081
SWIDTH 558 0
DWIDTH 8 0
BBX 6 11 1 0
BITMAP
44
38
00
84
8C
94
94
A4
A4
C4
84
ENDCHAR
STARTCHAR afii10076
ENCODING 1082
SWIDTH 437 0
DWIDTH 7 0
BBX 6 8 1 0
BITMAP
84
88
90
E0
A0
90
88
84
ENDCHAR
STARTCHAR afii10077
ENCODING 1083
SWIDTH 583 0
DWIDTH 9 0
BBX 7 8 0 0
BITMAP
3E
22
22
22
22
42
42
82
ENDCHAR
STARTCHAR afii10078
ENCODING 1084
SWIDTH 687 0
DWIDTH 10 0
BBX 8 8 1 0
BITMAP
81
C3
C3
A5
A5
A9
99
99
ENDCHAR
STARTCHAR afii10079
ENCODING 1085
SWIDTH 552 0
DWIDTH 8 0
BBX 6 8 1 0
BITMAP
84
84
84
FC
84
84
84
84
ENDCHAR
STARTCHAR afii10080
ENCODING 1086
SWIDTH 556 0
DWIDTH 8 0
BBX 6 8 1 0
BITMAP
78
84
84
84
84
84
84
78
ENDCHAR
STARTCHAR afii10081
ENCODING 1087
SWIDTH 541 0
DWIDTH 8 0
BBX 6 8 1 0
BITMAP
FC
84
84
84
84
84
84
84
ENDCHAR
STARTCHAR afii10082
ENCODING 1088
SWIDTH 556 0
DWIDTH 8 0
BBX 6 11 1 -3
BITMAP
B8
C4
84
84
84
84
C4
B8
80
80
80
ENDCHAR
STARTCHAR afii10083
ENCODING 1089
SWIDTH 500 0
DWIDTH 8 0
BBX 6 8 1 0
BITMAP
78
84
80
80
80
80
84
78
ENDCHAR
STARTCHAR afii10084
ENCODING 1090
SWIDTH 458 0
DWIDTH 7 0
BBX 7 8 0 0
BITMAP
FE
10
10
10
10
10
10
10
ENDCHAR
STARTCHAR afii10085
ENCODING 1091
SWIDTH 500 0
DWIDTH 8 0
BBX 7 11 0 -3
BITMAP
82
82
44
44
48
28
28
10
10
20
C0
ENDCHAR
STARTCHAR afii10086
ENCODING 1092
SWIDTH 822 0
DWIDTH 12 0
BBX 11 14 0 -3
BITMAP
0400
0400
0400
75C0
8E20
8420
8420
8420
8420
8E20
75C0
0400
0400
0400
ENDCHAR
STARTCHAR afii10087
ENCODING 1093
SWIDTH 500 0
DWIDTH 8 0
BBX 7 8 0 0
BITMAP
82
44
28
10
28
28
44
82
ENDCHAR
STARTCHAR afii10088
ENCODING 1094
SWIDTH 572 0
DWIDTH 9 0
BBX 7 11 1 -3
BITMAP
84
84
84
84
84
84
84
FE
02
02
02
ENDCHAR
STARTCHAR afii10089
ENCODING 1095
SWIDTH 520 0
DWIDTH 8 0
BBX 6 8 1 0
BITMAP
84
84
84
84
7C
04
04
04
ENDCHAR
STARTCHAR afii10090
ENCODING 1096
SWIDTH 802 0
DWIDTH 12 0
BBX 9 8 1 0
BITMAP
8880
8880
8880
8880
8880
8880
8880
FF80
ENDCHAR
STARTCHAR afii10091
ENCODING 1097
SWIDTH 822 0
DWIDTH 12 0
BBX 10 11 1 -3
BITMAP
8880
8880
8880
8880
8880
8880
8880
FFC0
0040
0040
0040
ENDCHAR
STARTCHAR afii10092
ENCODING 1098
SWIDTH 625 0
DWIDTH 9 0
BBX 8 8 0 0
BITMAP
F0
10
10
1E
11
11
11
1E
ENDCHAR
STARTCHAR afii10093
ENCODING 1099
SWIDTH 718 0
DWIDTH 11 0
BBX 9 8 1 0
BITMAP
8080
8080
8080
F880
8480
8480
8480
F880
ENDCHAR
STARTCHAR afii10094
ENCODING 1100
SWIDTH 520 0
DWIDTH 8 0
BBX 6 8 1 0
BITMAP
80
80
80
F8
84
84
84
F8
ENDCHAR
STARTCHAR afii10095
ENCODING 1101
SWIDTH 510 0
DWIDTH 8 0
BBX 6 8 1 0
BITMAP
78
88
04
3C
04
04
88
78
ENDCHAR
STARTCHAR afii10096
ENCODING 1102
SWIDTH 750 0
DWIDTH 11 0
BBX 9 8 1 0
BITMAP
8F00
9080
9080
F080
9080
9080
9080
8F00
ENDCHAR
STARTCHAR afii10097
ENCODING 1103
SWIDTH 541 0
DWIDTH 8 0
BBX 6 8 1 0
BITMAP
7C
84
84
84
7C
24
44
84
ENDCHAR
STARTCHAR afii10071
ENCODING 1105
SWIDTH 556 0
DWIDTH 8 0
BBX 6 10 1 0
BITMAP
28
00
78
84
84
FC
80
80
84
78
ENDCHAR
STARTCHAR afii10099
ENCODING 1106
SWIDTH 556 0
DWIDTH 8 0
BBX 7 14 0 -3
BITMAP
40
F0
40
5C
62
42
42
42
42
42
42
02
02
0C
ENDCHAR
STARTCHAR afii10100
ENCODING 1107
SWIDTH 364 0
DWIDTH 5 0
BBX 4 11 1 0
BITMAP
30
40
00
F0
80
80
80
80
80
80
80
ENDCHAR
STARTCHAR afii10101
ENCODING 1108
SWIDTH 510 0
DWIDTH 8 0
BBX 6 8 1 0
BITMAP
78
84
80
F0
80
80
84
78
ENDCHAR
STARTCHAR afii10102
ENCODING 1109
SWIDTH 500 0
DWIDTH 8 0
BBX 6 8 1 0
BITMAP
78
84
80
70
0C
04
84
78
ENDCHAR
STARTCHAR afii10103
ENCODING 1110
SWIDTH 222 0
DWIDTH 3 0
BBX 1 11 1 0
BITMAP
80
00
00
80
80
80
80
80
80
80
80
ENDCHAR
STARTCHAR afii10104
ENCODING 1111
SWIDTH 277 0
DWIDTH 4 0
BBX 3 10 0 0
BITMAP
A0
00
40
40
40
40
40
40
40
40
ENDCHAR
STARTCHAR afii10105
ENCODING 1112
SWIDTH 222 0
DWIDTH 3 0
BBX 2 14 0 -3
BITMAP
40
00
00
40
40
40
40
40
40
40
40
40
40
80
ENDCHAR
STARTCHAR afii10106
ENCODING 1113
SWIDTH 906 0
DWIDTH 14 0
BBX 13 8 0 0
BITMAP
3F00
2100
2100
21F0
2108
4108
4108
81F0
ENDCHAR
STARTCHAR afii10107
ENCODING 1114
SWIDTH 812 0
DWIDTH 12 0
BBX 10 8 1 0
BITMAP
8800
8800
8800
FF80
8840
8840
8840
8F80
ENDCHAR
STARTCHAR afii10108
ENCODING 1115
SWIDTH 556 0
DWIDTH 8 0
BBX 7 11 0 0
BITMAP
40
F0
40
5C
62
42
42
42
42
42
42
ENDCHAR
STARTCHAR afii10109
ENCODING 1116
SWIDTH 437 0
DWIDTH 7 0
BBX 6 11 1 0
BITMAP
18
20
00
84
88
90
E0
A0
90
88
84
ENDCHAR
STARTCHAR afii10110
ENCODING 1118
SWIDTH 500 0
DWIDTH 8 0
BBX 7 14 0 -3
BITMAP
44
38
00
82
82
44
44
48
28
28
10
10
20
C0
ENDCHAR
STARTCHAR afii10193
ENCODING 1119
SWIDTH 552 0
DWIDTH 8 0
BBX 6 11 1 -3
BITMAP
84
84
84
84
84
84
84
FC
10
10
10
ENDCHAR
STARTCHAR afii10050
ENCODING 1168
SWIDTH 488 0
DWIDTH 7 0
BBX 5 13 1 0
BITMAP
08
08
08
F8
80
80
80
80
80
80
80
80
80
ENDCHAR
STARTCHAR afii10098
ENCODING 1169
SWIDTH 411 0
DWIDTH 6 0
BBX 4 11 1 0
BITMAP
10
10
10
F0
80
80
80
80
80
80
80
ENDCHAR
STARTCHAR Wgrave
ENCODING 7808
SWIDTH 943 0
DWIDTH 14 0
BBX 13 13 1 0
BITMAP
0600
0100
0000
8208
8208
4510
4510
4510
28A0
28A0
28A0
30C0
1040
ENDCHAR
STARTCHAR wgrave
ENCODING 7809
SWIDTH 722 0
DWIDTH 11 0
BBX 9 11 1 0
BITMAP
1800
0400
0000
8880
8880
9480
5500
5500
5500
2200
2200
ENDCHAR
STARTCHAR Wacute
ENCODING 7810
SWIDTH 943 0
DWIDTH 14 0
BBX 13 13 1 0
BITMAP
0180
0200
0000
8208
8208
4510
4510
4510
28A0
28A0
28A0
30C0
1040
ENDCHAR
STARTCHAR wacute
ENCODING 7811
SWIDTH 722 0
DWIDTH 11 0
BBX 9 11 1 0
BITMAP
0600
0800
0000
8880
8880
9480
5500
5500
5500
2200
2200
ENDCHAR
STARTCHAR Wdieresis
ENCODING 7812
SWIDTH 943 0
DWIDTH 14 0
BBX 13 12 1 0
BITMAP
0480
0000
8208
8208
4510
4510
4510
28A0
28A0
28A0
30C0
1040
ENDCHAR
STARTCHAR wdieresis
ENCODING 7813
SWIDTH 722 0
DWIDTH 11 0
BBX 9 10 1 0
BITMAP
1400
0000
8880
8880
9480
5500
5500
5500
2200
2200
ENDCHAR
STARTCHAR Ygrave
ENCODING 7922
SWIDTH 666 0
DWIDTH 10 0
BBX 7 13 1 0
BITMAP
30
08
00
82
44
44
28
28
10
10
10
10
10
ENDCHAR
STARTCHAR ygrave
ENCODING 7923
SWIDTH 500 0
DWIDTH 8 0
BBX 7 14 0 -3
BITMAP
30
08
00
82
82
44
44
48
28
28
10
10
20
C0
ENDCHAR
STARTCHAR endash
ENCODING 8211
SWIDTH 556 0
DWIDTH 8 0
BBX 8 1 0 4
BITMAP
FF
ENDCHAR
STARTCHAR emdash
ENCODING 8212
SWIDTH 1000 0
DWIDTH 15 0
BBX 15 1 0 4
BITMAP
FFFE
ENDCHAR
STARTCHAR afii00208
ENCODING 8213
SWIDTH 1000 0
DWIDTH 15 0
BBX 15 1 0 4
BITMAP
FFFE
ENDCHAR
STARTCHAR underscoredbl
ENCODING 8215
SWIDTH 552 0
DWIDTH 8 0
BBX 8 2 0 -3
BITMAP
FF
FF
ENDCHAR
STARTCHAR quoteleft
ENCODING 8216
SWIDTH 222 0
DWIDTH 3 0
BBX 2 4 1 6
BITMAP
40
80
80
80
ENDCHAR
STARTCHAR quoteright
ENCODING 8217
SWIDTH 222 0
DWIDTH 3 0
BBX 2 4 0 6
BITMAP
40
40
40
80
ENDCHAR
STARTCHAR quotesinglbase
ENCODING 8218
SWIDTH 222 0
DWIDTH 3 0
BBX 2 4 0 -2
BITMAP
40
40
40
80
ENDCHAR
STARTCHAR quotereversed
ENCODING 8219
SWIDTH 222 0
DWIDTH 3 0
BBX 2 4 1 6
BITMAP
80
80
80
40
ENDCHAR
STARTCHAR quotedblleft
ENCODING 8220
SWIDTH 333 0
DWIDTH 5 0
BBX 4 4 1 6
BITMAP
50
A0
A0
A0
ENDCHAR
STARTCHAR quotedblright
ENCODING 8221
SWIDTH 333 0
DWIDTH 5 0
BBX 4 4 0 6
BITMAP
50
50
50
A0
ENDCHAR
STARTCHAR quotedblbase
ENCODING 8222
SWIDTH 333 0
DWIDTH 5 0
BBX 4 4 0 -2
BITMAP
50
50
50
A0
ENDCHAR
STARTCHAR dagger
ENCODING 8224
SWIDTH 556 0
DWIDTH 8 0
BBX 7 12 1 -1
BITMAP
10
10
10
FE
10
10
10
10
10
10
10
10
ENDCHAR
STARTCHAR daggerdbl
ENCODING 8225
SWIDTH 556 0
DWIDTH 8 0
BBX 7 12 1 -1
BITMAP
10
10
10
FE
10
10
10
10
FE
10
10
10
ENDCHAR
STARTCHAR bullet
ENCODING 8226
SWIDTH 350 0
DWIDTH 5 0
BBX 4 4 1 3
BITMAP
60
F0
F0
60
ENDCHAR
STARTCHAR ellipsis
ENCODING 8230
SWIDTH 1000 0
DWIDTH 15 0
BBX 11 2 2 0
BITMAP
8420
8420
ENDCHAR
STARTCHAR perthousand
ENCODING 8240
SWIDTH 1000 0
DWIDTH 15 0
BBX 14 10 0 0
BITMAP
6100
9200
9200
9400
9B18
6CA4
14A4
24A4
24A4
4318
ENDCHAR
STARTCHAR minute
ENCODING 8242
SWIDTH 187 0
DWIDTH 3 0
BBX 2 4 1 6
BITMAP
40
40
80
80
ENDCHAR
STARTCHAR second
ENCODING 8243
SWIDTH 354 0
DWIDTH 5 0
BBX 4 4 1 6
BITMAP
50
50
A0
A0
ENDCHAR
STARTCHAR guilsinglleft
ENCODING 8249
SWIDTH 333 0
DWIDTH 5 0
BBX 4 7 0 1
BITMAP
10
20
40
80
40
20
10
ENDCHAR
STARTCHAR guilsinglright
ENCODING 8250
SWIDTH 333 0
DWIDTH 5 0
BBX 4 7 1 1
BITMAP
80
40
20
10
20
40
80
ENDCHAR
STARTCHAR exclamdbl
ENCODING 8252
SWIDTH 500 0
DWIDTH 8 0
BBX 4 10 2 0
BITMAP
90
90
90
90
90
90
90
00
90
90
ENDCHAR
STARTCHAR uni203E
ENCODING 8254
SWIDTH 333 0
DWIDTH 5 0
BBX 5 1 0 11
BITMAP
F8
ENDCHAR
STARTCHAR fraction
ENCODING 8260
SWIDTH 166 0
DWIDTH 3 0
BBX 7 10 -2 0
BITMAP
02
04
04
08
10
10
20
40
40
80
ENDCHAR
STARTCHAR uni207F
ENCODING 8319
SWIDTH 364 0
DWIDTH 5 0
BBX 4 5 1 4
BITMAP
E0
90
90
90
90
ENDCHAR
STARTCHAR franc
ENCODING 8355
SWIDTH 556 0
DWIDTH 8 0
BBX 7 10 0 0
BITMAP
7E
40
40
40
7E
40
40
F8
40
40
ENDCHAR
STARTCHAR lira
ENCODING 8356
SWIDTH 556 0
DWIDTH 8 0
BBX 6 10 1 0
BITMAP
38
44
40
F0
40
F0
40
40
84
F8
ENDCHAR
STARTCHAR peseta
ENCODING 8359
SWIDTH 1093 0
DWIDTH 16 0
BBX 15 10 1 0
BITMAP
F800
8400
8500
8500
FB9E
8120
8118
8106
8102
80BC
ENDCHAR
STARTCHAR Euro
ENCODING 8364
SWIDTH 556 0
DWIDTH 8 0
BBX 8 10 0 0
BITMAP
1E
21
40
FC
40
FC
40
40
21
1E
ENDCHAR
STARTCHAR afii61248
ENCODING 8453
SWIDTH 885 0
DWIDTH 13 0
BBX 11 10 1 0
BITMAP
6080
9100
8100
8200
94C0
6520
0920
1120
1120
20C0
ENDCHAR
STARTCHAR afii61289
ENCODING 8467
SWIDTH 323 0
DWIDTH 5 0
BBX 4 10 0 0
BITMAP
20
50
50
50
60
60
C0
40
50
20
ENDCHAR
STARTCHAR afii61352
ENCODING 8470
SWIDTH 1072 0
DWIDTH 16 0
BBX 14 10 1 0
BITMAP
8100
C100
A138
A144
9144
8944
8544
8538
8300
817C
ENDCHAR
STARTCHAR trademark
ENCODING 8482
SWIDTH 1000 0
DWIDTH 15 0
BBX 13 6 1 4
BITMAP
FA08
2318
2328
22A8
22A8
2248
ENDCHAR
STARTCHAR Omega
ENCODING 8486
SWIDTH 768 0
DWIDTH 12 0
BBX 10 10 1 0
BITMAP
1E00
6180
4080
8040
8040
8040
8040
4080
2100
E1C0
ENDCHAR
STARTCHAR estimated
ENCODING 8494
SWIDTH 600 0
DWIDTH 9 0
BBX 7 8 1 0
BITMAP
38
44
C6
FE
C0
C0
44
38
ENDCHAR
STARTCHAR oneeighth
ENCODING 8539
SWIDTH 833 0
DWIDTH 13 0
BBX 11 10 1 0
BITMAP
4080
4100
4100
4200
44C0
E520
08C0
1120
1120
20C0
ENDCHAR
STARTCHAR threeeighths
ENCODING 8540
SWIDTH 833 0
DWIDTH 13 0
BBX 12 10 0 0
BITMAP
E040
1080
6080
1100
1260
E290
0460
0890
0890
1060
ENDCHAR
STARTCHAR fiveeighths
ENCODING 8541
SWIDTH 833 0
DWIDTH 13 0
BBX 12 10 0 0
BITMAP
F040
8080
E080
1100
1260
E290
0460
0890
0890
1060
ENDCHAR
STARTCHAR seveneighths
ENCODING 8542
SWIDTH 833 0
DWIDTH 13 0
BBX 11 10 1 0
BITMAP
F080
1100
2100
2200
44C0
4520
08C0
1120
1120
20C0
ENDCHAR
STARTCHAR arrowleft
ENCODING 8592
SWIDTH 1000 0
DWIDTH 15 0
BBX 9 3 3 1
BITMAP
4000
FF80
4000
ENDCHAR
STARTCHAR arrowup
ENCODING 8593
SWIDTH 500 0
DWIDTH 8 0
BBX 3 9 2 -1
BITMAP
40
E0
40
40
40
40
40
40
40
ENDCHAR
STARTCHAR arrowright
ENCODING 8594
SWIDTH 1000 0
DWIDTH 15 0
BBX 9 3 3 1
BITMAP
0100
FF80
0100
ENDCHAR
STARTCHAR arrowdown
ENCODING 8595
SWIDTH 500 0
DWIDTH 8 0
BBX 3 9 2 -1
BITMAP
40
40
40
40
40
40
40
E0
40
ENDCHAR
STARTCHAR arrowboth
ENCODING 8596
SWIDTH 1000 0
DWIDTH 15 0
BBX 9 3 3 1
BITMAP
4100
FF80
4100
ENDCHAR
STARTCHAR arrowupdn
ENCODING 8597
SWIDTH 500 0
DWIDTH 8 0
BBX 3 9 2 -1
BITMAP
40
E0
40
40
40
40
40
E0
40
ENDCHAR
STARTCHAR arrowupdnbse
ENCODING 8616
SWIDTH 500 0
DWIDTH 8 0
BBX 3 11 2 -3
BITMAP
40
E0
40
40
40
40
40
E0
40
00
E0
ENDCHAR
STARTCHAR partialdiff
ENCODING 8706
SWIDTH 494 0
DWIDTH 7 0
BBX 6 11 1 0
BITMAP
38
04
04
04
34
4C
84
84
88
88
70
ENDCHAR
STARTCHAR Delta
ENCODING 8710
SWIDTH 611 0
DWIDTH 9 0
BBX 9 10 0 0
BITMAP
0800
1400
1400
2200
2200
4200
4100
4100
8080
FF80
ENDCHAR
STARTCHAR product
ENCODING 8719
SWIDTH 823 0
DWIDTH 12 0
BBX 8 13 2 -3
BITMAP
FF
81
81
81
81
81
81
81
81
81
81
81
81
ENDCHAR
STARTCHAR summation
ENCODING 8721
SWIDTH 712 0
DWIDTH 11 0
BBX 9 13 1 -3
BITMAP
FF80
8000
4000
2000
1000
0800
0400
0800
1000
2000
4000
8000
FF80
ENDCHAR
STARTCHAR minus
ENCODING 8722
SWIDTH 583 0
DWIDTH 9 0
BBX 7 1 1 5
BITMAP
FE
ENDCHAR
STARTCHAR fraction.dup4
ENCODING 8725
SWIDTH 166 0
DWIDTH 3 0
BBX 7 10 -2 0
BITMAP
02
04
04
08
10
10
20
40
40
80
ENDCHAR
STARTCHAR periodcentered.dup5
ENCODING 8729
SWIDTH 277 0
DWIDTH 4 0
BBX 1 2 1 4
BITMAP
80
80
ENDCHAR
STARTCHAR radical
ENCODING 8730
SWIDTH 548 0
DWIDTH 8 0
BBX 8 12 1 0
BITMAP
01
01
02
02
04
C4
44
28
28
28
10
10
ENDCHAR
STARTCHAR infinity
ENCODING 8734
SWIDTH 712 0
DWIDTH 11 0
BBX 9 6 1 1
BITMAP
6300
9480
8880
8880
9480
6300
ENDCHAR
STARTCHAR orthogonal
ENCODING 8735
SWIDTH 979 0
DWIDTH 15 0
BBX 9 9 3 0
BITMAP
8000
8000
8000
8000
8000
8000
8000
8000
FF80
ENDCHAR
STARTCHAR intersection
ENCODING 8745
SWIDTH 718 0
DWIDTH 11 0
BBX 7 8 2 0
BITMAP
38
44
82
82
82
82
82
82
ENDCHAR
STARTCHAR integral
ENCODING 8747
SWIDTH 273 0
DWIDTH 4 0
BBX 5 14 -1 -3
BITMAP
18
20
20
20
20
20
20
20
20
20
20
20
20
C0
ENDCHAR
STARTCHAR approxequal
ENCODING 8776
SWIDTH 548 0
DWIDTH 8 0
BBX 6 5 1 3
BITMAP
64
98
00
64
98
ENDCHAR
STARTCHAR notequal
ENCODING 8800
SWIDTH 548 0
DWIDTH 8 0
BBX 6 8 1 1
BITMAP
08
10
FC
10
20
FC
40
40
ENDCHAR
STARTCHAR equivalence
ENCODING 8801
SWIDTH 583 0
DWIDTH 9 0
BBX 7 6 1 2
BITMAP
FE
00
FE
00
00
FE
ENDCHAR
STARTCHAR lessequal
ENCODING 8804
SWIDTH 548 0
DWIDTH 8 0
BBX 6 9 1 0
BITMAP
04
18
60
80
60
18
04
00
FC
ENDCHAR
STARTCHAR greaterequal
ENCODING 8805
SWIDTH 548 0
DWIDTH 8 0
BBX 6 9 1 0
BITMAP
80
60
18
04
18
60
80
00
FC
ENDCHAR
STARTCHAR house
ENCODING 8962
SWIDTH 604 0
DWIDTH 9 0
BBX 7 9 1 0
BITMAP
10
28
44
82
82
82
82
82
FE
ENDCHAR
STARTCHAR revlogicalnot
ENCODING 8976
SWIDTH 583 0
DWIDTH 9 0
BBX 7 5 1 1
BITMAP
FE
80
80
80
80
ENDCHAR
STARTCHAR integraltp
ENCODING 8992
SWIDTH 604 0
DWIDTH 9 0
BBX 3 18 4 -5
BITMAP
60
80
80
80
80
80
80
80
80
80
80
80
80
80
80
80
80
80
ENDCHAR
STARTCHAR integralbt
ENCODING 8993
SWIDTH 604 0
DWIDTH 9 0
BBX 3 18 2 -5
BITMAP
20
20
20
20
20
20
20
20
20
20
20
20
20
20
20
20
20
C0
ENDCHAR
STARTCHAR SF100000
ENCODING 9472
SWIDTH 708 0
DWIDTH 11 0
BBX 11 1 0 4
BITMAP
FFE0
ENDCHAR
STARTCHAR SF110000
ENCODING 9474
SWIDTH 625 0
DWIDTH 9 0
BBX 1 19 5 -5
BITMAP
80
80
80
80
80
80
80
80
80
80
80
80
80
80
80
80
80
80
80
ENDCHAR
STARTCHAR SF010000
ENCODING 9484
SWIDTH 708 0
DWIDTH 11 0
BBX 6 10 5 -5
BITMAP
FC
80
80
80
80
80
80
80
80
80
ENDCHAR
STARTCHAR SF030000
ENCODING 9488
SWIDTH 708 0
DWIDTH 11 0
BBX 6 10 0 -5
BITMAP
FC
04
04
04
04
04
04
04
04
04
ENDCHAR
STARTCHAR SF020000
ENCODING 9492
SWIDTH 708 0
DWIDTH 11 0
BBX 6 10 5 4
BITMAP
80
80
80
80
80
80
80
80
80
FC
ENDCHAR
STARTCHAR SF040000
ENCODING 9496
SWIDTH 708 0
DWIDTH 11 0
BBX 6 10 0 4
BITMAP
04
04
04
04
04
04
04
04
04
FC
ENDCHAR
STARTCHAR SF080000
ENCODING 9500
SWIDTH 708 0
DWIDTH 11 0
BBX 6 19 5 -5
BITMAP
80
80
80
80
80
80
80
80
80
FC
80
80
80
80
80
80
80
80
80
ENDCHAR
STARTCHAR SF090000
ENCODING 9508
SWIDTH 708 0
DWIDTH 11 0
BBX 6 19 0 -5
BITMAP
04
04
04
04
04
04
04
04
04
FC
04
04
04
04
04
04
04
04
04
ENDCHAR
STARTCHAR SF060000
ENCODING 9516
SWIDTH 708 0
DWIDTH 11 0
BBX 11 10 0 -5
BITMAP
FFE0
0400
0400
0400
0400
0400
0400
0400
0400
0400
ENDCHAR
STARTCHAR SF070000
ENCODING 9524
SWIDTH 708 0
DWIDTH 11 0
BBX 11 10 0 4
BITMAP
0400
0400
0400
0400
0400
0400
0400
0400
0400
FFE0
ENDCHAR
STARTCHAR SF050000
ENCODING 9532
SWIDTH 708 0
DWIDTH 11 0
BBX 11 19 0 -5
BITMAP
0400
0400
0400
0400
0400
0400
0400
0400
0400
FFE0
0400
0400
0400
0400
0400
0400
0400
0400
0400
ENDCHAR
STARTCHAR SF430000
ENCODING 9552
SWIDTH 708 0
DWIDTH 11 0
BBX 11 4 0 3
BITMAP
FFE0
0000
0000
FFE0
ENDCHAR
STARTCHAR SF240000
ENCODING 9553
SWIDTH 708 0
DWIDTH 11 0
BBX 4 19 3 -5
BITMAP
90
90
90
90
90
90
90
90
90
90
90
90
90
90
90
90
90
90
90
ENDCHAR
STARTCHAR SF510000
ENCODING 9554
SWIDTH 708 0
DWIDTH 11 0
BBX 6 12 5 -5
BITMAP
FC
80
80
FC
80
80
80
80
80
80
80
80
ENDCHAR
STARTCHAR SF520000
ENCODING 9555
SWIDTH 708 0
DWIDTH 11 0
BBX 8 10 3 -5
BITMAP
FF
90
90
90
90
90
90
90
90
90
ENDCHAR
STARTCHAR SF390000
ENCODING 9556
SWIDTH 708 0
DWIDTH 11 0
BBX 8 12 3 -5
BITMAP
FF
80
80
9F
90
90
90
90
90
90
90
90
ENDCHAR
STARTCHAR SF220000
ENCODING 9557
SWIDTH 708 0
DWIDTH 11 0
BBX 6 12 0 -5
BITMAP
FC
04
04
FC
04
04
04
04
04
04
04
04
ENDCHAR
STARTCHAR SF210000
ENCODING 9558
SWIDTH 708 0
DWIDTH 11 0
BBX 7 10 0 -5
BITMAP
FE
12
12
12
12
12
12
12
12
12
ENDCHAR
STARTCHAR SF250000
ENCODING 9559
SWIDTH 708 0
DWIDTH 11 0
BBX 7 12 0 -5
BITMAP
FE
02
02
F2
12
12
12
12
12
12
12
12
ENDCHAR
STARTCHAR SF500000
ENCODING 9560
SWIDTH 708 0
DWIDTH 11 0
BBX 6 11 5 3
BITMAP
80
80
80
80
80
80
80
FC
80
80
FC
ENDCHAR
STARTCHAR SF490000
ENCODING 9561
SWIDTH 708 0
DWIDTH 11 0
BBX 8 10 3 4
BITMAP
90
90
90
90
90
90
90
90
90
FF
ENDCHAR
STARTCHAR SF380000
ENCODING 9562
SWIDTH 708 0
DWIDTH 11 0
BBX 8 11 3 3
BITMAP
90
90
90
90
90
90
90
9F
80
80
FF
ENDCHAR
STARTCHAR SF280000
ENCODING 9563
SWIDTH 708 0
DWIDTH 11 0
BBX 6 11 0 3
BITMAP
04
04
04
04
04
04
04
FC
04
04
FC
ENDCHAR
STARTCHAR SF270000
ENCODING 9564
SWIDTH 708 0
DWIDTH 11 0
BBX 7 10 0 4
BITMAP
12
12
12
12
12
12
12
12
12
FE
ENDCHAR
STARTCHAR SF260000
ENCODING 9565
SWIDTH 708 0
DWIDTH 11 0
BBX 7 11 0 3
BITMAP
12
12
12
12
12
12
12
F2
02
02
FE
ENDCHAR
STARTCHAR SF360000
ENCODING 9566
SWIDTH 708 0
DWIDTH 11 0
BBX 6 19 5 -5
BITMAP
80
80
80
80
80
80
80
FC
80
80
FC
80
80
80
80
80
80
80
80
ENDCHAR
STARTCHAR SF370000
ENCODING 9567
SWIDTH 708 0
DWIDTH 11 0
BBX 8 19 3 -5
BITMAP
90
90
90
90
90
90
90
90
90
9F
90
90
90
90
90
90
90
90
90
ENDCHAR
STARTCHAR SF420000
ENCODING 9568
SWIDTH 708 0
DWIDTH 11 0
BBX 8 19 3 -5
BITMAP
90
90
90
90
90
90
90
9F
80
80
9F
90
90
90
90
90
90
90
90
ENDCHAR
STARTCHAR SF190000
ENCODING 9569
SWIDTH 708 0
DWIDTH 11 0
BBX 6 19 0 -5
BITMAP
04
04
04
04
04
04
04
FC
04
04
FC
04
04
04
04
04
04
04
04
ENDCHAR
STARTCHAR SF200000
ENCODING 9570
SWIDTH 708 0
DWIDTH 11 0
BBX 7 19 0 -5
BITMAP
12
12
12
12
12
12
12
12
12
F2
12
12
12
12
12
12
12
12
12
ENDCHAR
STARTCHAR SF230000
ENCODING 9571
SWIDTH 708 0
DWIDTH 11 0
BBX 7 19 0 -5
BITMAP
12
12
12
12
12
12
12
F2
02
02
F2
12
12
12
12
12
12
12
12
ENDCHAR
STARTCHAR SF470000
ENCODING 9572
SWIDTH 708 0
DWIDTH 11 0
BBX 11 12 0 -5
BITMAP
FFE0
0000
0000
FFE0
0400
0400
0400
0400
0400
0400
0400
0400
ENDCHAR
STARTCHAR SF480000
ENCODING 9573
SWIDTH 708 0
DWIDTH 11 0
BBX 11 10 0 -5
BITMAP
FFE0
1200
1200
1200
1200
1200
1200
1200
1200
1200
ENDCHAR
STARTCHAR SF410000
ENCODING 9574
SWIDTH 708 0
DWIDTH 11 0
BBX 11 12 0 -5
BITMAP
FFE0
0000
0000
F3E0
1200
1200
1200
1200
1200
1200
1200
1200
ENDCHAR
STARTCHAR SF450000
ENCODING 9575
SWIDTH 708 0
DWIDTH 11 0
BBX 11 11 0 3
BITMAP
0400
0400
0400
0400
0400
0400
0400
FFE0
0000
0000
FFE0
ENDCHAR
STARTCHAR SF460000
ENCODING 9576
SWIDTH 708 0
DWIDTH 11 0
BBX 11 10 0 4
BITMAP
1200
1200
1200
1200
1200
1200
1200
1200
1200
FFE0
ENDCHAR
STARTCHAR SF400000
ENCODING 9577
SWIDTH 708 0
DWIDTH 11 0
BBX 11 11 0 3
BITMAP
1200
1200
1200
1200
1200
1200
1200
F3E0
0000
0000
FFE0
ENDCHAR
STARTCHAR SF540000
ENCODING 9578
SWIDTH 708 0
DWIDTH 11 0
BBX 11 19 0 -5
BITMAP
0400
0400
0400
0400
0400
0400
0400
FFE0
0400
0400
FFE0
0400
0400
0400
0400
0400
0400
0400
0400
ENDCHAR
STARTCHAR SF530000
ENCODING 9579
SWIDTH 708 0
DWIDTH 11 0
BBX 11 19 0 -5
BITMAP
1200
1200
1200
1200
1200
1200
1200
1200
1200
FFE0
1200
1200
1200
1200
1200
1200
1200
1200
1200
ENDCHAR
STARTCHAR SF440000
ENCODING 9580
SWIDTH 708 0
DWIDTH 11 0
BBX 11 19 0 -5
BITMAP
1200
1200
1200
1200
1200
1200
1200
F3E0
0000
0000
F3E0
1200
1200
1200
1200
1200
1200
1200
1200
ENDCHAR
STARTCHAR upblock
ENCODING 9600
SWIDTH 708 0
DWIDTH 11 0
BBX 11 9 0 5
BITMAP
FFE0
FFE0
FFE0
FFE0
FFE0
FFE0
FFE0
FFE0
FFE0
ENDCHAR
STARTCHAR dnblock
ENCODING 9604
SWIDTH 708 0
DWIDTH 11 0
BBX 11 10 0 -5
BITMAP
FFE0
FFE0
FFE0
FFE0
FFE0
FFE0
FFE0
FFE0
FFE0
FFE0
ENDCHAR
STARTCHAR block
ENCODING 9608
SWIDTH 708 0
DWIDTH 11 0
BBX 11 19 0 -5
BITMAP
FFE0
FFE0
FFE0
FFE0
FFE0
FFE0
FFE0
FFE0
FFE0
FFE0
FFE0
FFE0
FFE0
FFE0
FFE0
FFE0
FFE0
FFE0
FFE0
ENDCHAR
STARTCHAR lfblock
ENCODING 9612
SWIDTH 708 0
DWIDTH 11 0
BBX 5 19 0 -5
BITMAP
F8
F8
F8
F8
F8
F8
F8
F8
F8
F8
F8
F8
F8
F8
F8
F8
F8
F8
F8
ENDCHAR
STARTCHAR rtblock
ENCODING 9616
SWIDTH 708 0
DWIDTH 11 0
BBX 6 19 5 -5
BITMAP
FC
FC
FC
FC
FC
FC
FC
FC
FC
FC
FC
FC
FC
FC
FC
FC
FC
FC
FC
ENDCHAR
STARTCHAR ltshade
ENCODING 9617
SWIDTH 708 0
DWIDTH 11 0
BBX 10 16 1 -4
BITMAP
9240
2480
0000
9240
2480
9240
0000
2480
9240
0000
2480
9240
2480
0000
9240
2480
ENDCHAR
STARTCHAR shade
ENCODING 9618
SWIDTH 708 0
DWIDTH 11 0
BBX 11 15 0 -4
BITMAP
9240
6DA0
0000
9240
6DA0
0000
0000
6DA0
9240
0000
6DA0
9240
0000
0000
9240
ENDCHAR
STARTCHAR dkshade
ENCODING 9619
SWIDTH 729 0
DWIDTH 11 0
BBX 11 17 0 -5
BITMAP
FFE0
DAC0
6DA0
FFE0
DAE0
6DA0
FFE0
FFE0
6DA0
DAC0
FFE0
6DA0
DAC0
FFE0
FFE0
DAC0
FFE0
ENDCHAR
STARTCHAR filledbox
ENCODING 9632
SWIDTH 604 0
DWIDTH 9 0
BBX 7 7 1 1
BITMAP
FE
FE
FE
FE
FE
FE
FE
ENDCHAR
STARTCHAR H22073
ENCODING 9633
SWIDTH 604 0
DWIDTH 9 0
BBX 9 9 0 0
BITMAP
FF80
8080
8080
8080
8080
8080
8080
8080
FF80
ENDCHAR
STARTCHAR H18543
ENCODING 9642
SWIDTH 354 0
DWIDTH 5 0
BBX 4 4 1 3
BITMAP
F0
F0
F0
F0
ENDCHAR
STARTCHAR H18551
ENCODING 9643
SWIDTH 354 0
DWIDTH 5 0
BBX 4 4 1 3
BITMAP
F0
90
90
F0
ENDCHAR
STARTCHAR filledrect
ENCODING 9644
SWIDTH 1000 0
DWIDTH 15 0
BBX 15 5 0 0
BITMAP
FFFE
FFFE
FFFE
FFFE
FFFE
ENDCHAR
STARTCHAR triagup
ENCODING 9650
SWIDTH 989 0
DWIDTH 15 0
BBX 9 9 3 0
BITMAP
0800
0800
1C00
1C00
3E00
3E00
7F00
7F00
FF80
ENDCHAR
STARTCHAR triagrt
ENCODING 9658
SWIDTH 989 0
DWIDTH 15 0
BBX 9 8 3 0
BITMAP
C000
F000
FC00
FF80
FE00
F800
E000
8000
ENDCHAR
STARTCHAR triagdn
ENCODING 9660
SWIDTH 989 0
DWIDTH 15 0
BBX 9 9 3 0
BITMAP
FF80
7F00
7F00
3E00
3E00
1C00
1C00
0800
0800
ENDCHAR
STARTCHAR triaglf
ENCODING 9668
SWIDTH 989 0
DWIDTH 15 0
BBX 9 9 3 0
BITMAP
0080
0380
0F80
3F80
FF80
3F80
0F80
0380
0080
ENDCHAR
STARTCHAR lozenge
ENCODING 9674
SWIDTH 494 0
DWIDTH 7 0
BBX 7 10 0 0
BITMAP
10
28
28
44
82
82
44
28
28
10
ENDCHAR
STARTCHAR circle
ENCODING 9675
SWIDTH 604 0
DWIDTH 9 0
BBX 7 7 1 1
BITMAP
38
44
82
82
82
44
38
ENDCHAR
STARTCHAR H18533
ENCODING 9679
SWIDTH 604 0
DWIDTH 9 0
BBX 6 6 1 1
BITMAP
78
FC
FC
FC
FC
78
ENDCHAR
STARTCHAR invbullet
ENCODING 9688
SWIDTH 604 0
DWIDTH 9 0
BBX 8 8 0 0
BITMAP
FF
C3
81
81
81
81
C3
FF
ENDCHAR
STARTCHAR invcircle
ENCODING 9689
SWIDTH 604 0
DWIDTH 9 0
BBX 8 8 0 0
BITMAP
FF
C3
99
BD
BD
99
C3
FF
ENDCHAR
STARTCHAR openbullet
ENCODING 9702
SWIDTH 354 0
DWIDTH 5 0
BBX 4 4 1 2
BITMAP
60
90
90
60
ENDCHAR
STARTCHAR smileface
ENCODING 9786
SWIDTH 1020 0
DWIDTH 15 0
BBX 9 9 3 0
BITMAP
3E00
4100
8080
A280
8080
A280
9C80
4100
3E00
ENDCHAR
STARTCHAR invsmileface
ENCODING 9787
SWIDTH 1052 0
DWIDTH 16 0
BBX 9 9 3 0
BITMAP
3E00
7F00
FF80
DD80
FF80
DD80
E380
7F00
3E00
ENDCHAR
STARTCHAR sun
ENCODING 9788
SWIDTH 916 0
DWIDTH 14 0
BBX 9 9 2 -1
BITMAP
0800
4900
3E00
2200
E380
2200
3E00
4900
0800
ENDCHAR
STARTCHAR female
ENCODING 9792
SWIDTH 750 0
DWIDTH 11 0
BBX 5 8 4 0
BITMAP
60
90
90
70
20
F8
20
20
ENDCHAR
STARTCHAR male
ENCODING 9794
SWIDTH 750 0
DWIDTH 11 0
BBX 6 6 2 2
BITMAP
0C
0C
70
90
90
60
ENDCHAR
STARTCHAR spade
ENCODING 9824
SWIDTH 531 0
DWIDTH 8 0
BBX 7 9 0 0
BITMAP
10
10
38
7C
FE
FE
FE
10
38
ENDCHAR
STARTCHAR club
ENCODING 9827
SWIDTH 656 0
DWIDTH 10 0
BBX 9 9 0 0
BITMAP
1C00
1C00
1C00
7F00
FF80
FF80
6B00
0800
3E00
ENDCHAR
STARTCHAR heart
ENCODING 9829
SWIDTH 593 0
DWIDTH 9 0
BBX 7 8 1 0
BITMAP
EE
EE
FE
7C
7C
38
10
10
ENDCHAR
STARTCHAR diamond
ENCODING 9830
SWIDTH 510 0
DWIDTH 8 0
BBX 7 9 0 0
BITMAP
10
10
38
7C
FE
7C
38
38
10
ENDCHAR
STARTCHAR musicalnote
ENCODING 9834
SWIDTH 500 0
DWIDTH 8 0
BBX 5 8 2 0
BITMAP
20
30
38
28
28
20
E0
C0
ENDCHAR
STARTCHAR musicalnotedbl
ENCODING 9835
SWIDTH 750 0
DWIDTH 11 0
BBX 8 8 2 0
BITMAP
03
3D
27
39
21
21
E7
C6
ENDCHAR
STARTCHAR uniF001
ENCODING 61441
SWIDTH 500 0
DWIDTH 8 0
BBX 6 11 1 0
BITMAP
74
40
40
F4
44
44
44
44
44
44
44
ENDCHAR
STARTCHAR uniF002
ENCODING 61442
SWIDTH 500 0
DWIDTH 8 0
BBX 6 11 1 0
BITMAP
74
44
44
F4
44
44
44
44
44
44
44
ENDCHAR
STARTCHAR uniF005
ENCODING 61445
SWIDTH 333 0
DWIDTH 5 0
BBX 3 3 1 -4
BITMAP
C0
20
C0
ENDCHAR
STARTCHAR uniF001.dup6
ENCODING 64257
SWIDTH 500 0
DWIDTH 8 0
BBX 6 11 1 0
BITMAP
74
40
40
F4
44
44
44
44
44
44
44
ENDCHAR
STARTCHAR uniF002.dup7
ENCODING 64258
SWIDTH 500 0
DWIDTH 8 0
BBX 6 11 1 0
BITMAP
74
44
44
F4
44
44
44
44
44
44
44
ENDCHAR
STARTCHAR .notdef
ENCODING -1
SWIDTH 750 0
DWIDTH 11 0
BBX 8 10 2 0
BITMAP
FF
81
81
81
81
81
81
81
81
FF
ENDCHAR
STARTCHAR .null
ENCODING -1
SWIDTH 0 0
DWIDTH 0 0
BBX 1 1 0 0
BITMAP
00
ENDCHAR
STARTCHAR nonmarkingreturn
ENCODING -1
SWIDTH 277 0
DWIDTH 4 0
BBX 1 1 0 0
BITMAP
00
ENDCHAR
STARTCHAR middot
ENCODING -1
SWIDTH 333 0
DWIDTH 5 0
BBX 1 2 1 4
BITMAP
80
80
ENDCHAR
STARTCHAR uniF004
ENCODING -1
SWIDTH 333 0
DWIDTH 5 0
BBX 2 3 0 -4
BITMAP
40
40
80
ENDCHAR
STARTCHAR uni2074
ENCODING -1
SWIDTH 333 0
DWIDTH 5 0
BBX 5 6 0 4
BITMAP
10
30
50
90
F8
10
ENDCHAR
STARTCHAR uni2075
ENCODING -1
SWIDTH 333 0
DWIDTH 5 0
BBX 4 6 0 4
BITMAP
F0
80
E0
10
10
E0
ENDCHAR
STARTCHAR uni2077
ENCODING -1
SWIDTH 333 0
DWIDTH 5 0
BBX 4 6 0 4
BITMAP
F0
10
20
20
40
40
ENDCHAR
STARTCHAR uni2078
ENCODING -1
SWIDTH 333 0
DWIDTH 5 0
BBX 4 6 0 4
BITMAP
60
90
60
90
90
60
ENDCHAR
STARTCHAR glyph571
ENCODING -1
SWIDTH 333 0
DWIDTH 5 0
BBX 5 2 0 9
BITMAP
88
70
ENDCHAR
STARTCHAR glyph572
ENCODING -1
SWIDTH 222 0
DWIDTH 3 0
BBX 1 3 1 7
BITMAP
80
80
80
ENDCHAR
STARTCHAR glyph573
ENCODING -1
SWIDTH 222 0
DWIDTH 3 0
BBX 1 3 1 9
BITMAP
80
80
80
ENDCHAR
STARTCHAR glyph574
ENCODING -1
SWIDTH 293 0
DWIDTH 4 0
BBX 3 2 1 11
BITMAP
C0
20
ENDCHAR
STARTCHAR glyph575
ENCODING -1
SWIDTH 293 0
DWIDTH 4 0
BBX 3 2 1 11
BITMAP
60
80
ENDCHAR
STARTCHAR glyph576
ENCODING -1
SWIDTH 324 0
DWIDTH 5 0
BBX 4 2 0 11
BITMAP
60
90
ENDCHAR
STARTCHAR glyph577
ENCODING -1
SWIDTH 324 0
DWIDTH 5 0
BBX 4 2 0 11
BITMAP
90
60
ENDCHAR
STARTCHAR glyph578
ENCODING -1
SWIDTH 315 0
DWIDTH 5 0
BBX 4 1 0 11
BITMAP
90
ENDCHAR
STARTCHAR glyph579
ENCODING -1
SWIDTH 328 0
DWIDTH 5 0
BBX 5 2 0 11
BITMAP
68
90
ENDCHAR
STARTCHAR glyph580
ENCODING -1
SWIDTH 397 0
DWIDTH 6 0
BBX 6 2 1 11
BITMAP
6C
90
ENDCHAR
STARTCHAR glyph581
ENCODING -1
SWIDTH 285 0
DWIDTH 4 0
BBX 5 2 0 11
BITMAP
88
70
ENDCHAR
ENDFONT
